<svg width="17" height="17" viewBox="0 0 17 17" fill="none" xmlns="http://www.w3.org/2000/svg">
<path fill-rule="evenodd" clip-rule="evenodd" d="M15.8906 17V15.2222C15.8906 13.2585 14.2239 11.6666 12.168 11.6666H4.72266C2.66669 11.6666 1 13.2585 1 15.2222V17" fill="#C1C7C4"/>
<path d="M15.8906 17V15.2222C15.8906 13.2585 14.2239 11.6666 12.168 11.6666H4.72266C2.66669 11.6666 1 13.2585 1 15.2222V17" stroke="#C1C7C4" stroke-width="2" stroke-linejoin="round"/>
<path fill-rule="evenodd" clip-rule="evenodd" d="M8.44525 8.11111C10.5012 8.11111 12.1679 6.51923 12.1679 4.55556C12.1679 2.59188 10.5012 1 8.44525 1C6.38929 1 4.7226 2.59188 4.7226 4.55556C4.7226 6.51923 6.38929 8.11111 8.44525 8.11111Z" fill="#C1C7C4" stroke="#C1C7C4" stroke-width="2" stroke-linecap="round" stroke-linejoin="round"/>
</svg>
