<svg width="376" height="813" viewBox="0 0 376 813" fill="none" xmlns="http://www.w3.org/2000/svg">
<g clip-path="url(#clip0)">
<rect width="376" height="813" fill="#016938"/>
<path d="M303.89 561.789C272.238 546.816 247.364 520.867 234.741 489.652C222.117 458.436 222.778 424.511 236.578 395.339L288.611 285.347L368.175 322.985L316.142 432.978C311.542 442.701 311.321 454.01 315.529 464.415C319.737 474.82 328.028 483.47 338.579 488.461C349.13 493.452 361.075 494.376 371.789 491.029C382.502 487.683 391.105 480.34 395.705 470.616L447.738 360.623L527.301 398.262L475.268 508.254C461.468 537.426 435.659 559.455 403.52 569.494C371.38 579.534 335.542 576.762 303.89 561.789Z" fill="#FFBD14"/>
<g opacity="0.5">
<path opacity="0.5" d="M303.89 561.789C272.238 546.816 247.364 520.867 234.741 489.652C222.117 458.436 222.778 424.511 236.578 395.339L288.611 285.347L368.175 322.985L316.142 432.978C311.542 442.701 311.321 454.01 315.529 464.415C319.737 474.82 328.028 483.47 338.579 488.461C349.13 493.452 361.075 494.376 371.789 491.029C382.502 487.683 391.105 480.34 395.705 470.616L447.738 360.623L527.301 398.262L475.268 508.254C461.468 537.426 435.659 559.455 403.52 569.494C371.38 579.534 335.542 576.762 303.89 561.789Z" fill="#FFBD14"/>
</g>
<g opacity="0.2">
<path d="M279.643 418.472C252.42 405.594 231.369 382.554 221.121 354.421C210.873 326.288 212.266 295.366 224.996 268.458L272.991 167L341.42 199.371L293.424 300.829C289.181 309.798 288.716 320.105 292.133 329.483C295.549 338.861 302.566 346.541 311.64 350.833C320.714 355.126 331.102 355.68 340.519 352.373C349.935 349.066 357.609 342.169 361.853 333.199L409.848 231.742L478.277 264.112L430.281 365.57C417.552 392.479 394.53 413.169 366.28 423.09C338.029 433.011 306.865 431.35 279.643 418.472Z" fill="#1EF2FF"/>
<g opacity="0.5">
<path opacity="0.5" d="M279.643 418.472C252.42 405.594 231.369 382.554 221.121 354.421C210.873 326.288 212.266 295.366 224.996 268.458L272.991 167L341.42 199.371L293.424 300.829C289.181 309.798 288.716 320.105 292.133 329.483C295.549 338.861 302.566 346.541 311.64 350.833C320.714 355.126 331.102 355.68 340.519 352.373C349.935 349.066 357.609 342.169 361.853 333.199L409.848 231.742L478.277 264.112L430.281 365.57C417.552 392.479 394.53 413.169 366.28 423.09C338.029 433.011 306.865 431.35 279.643 418.472Z" fill="#1EF2FF"/>
</g>
</g>
<g opacity="0.5">
<path opacity="0.5" d="M433.159 664.838C411.634 654.655 394.99 636.438 386.886 614.193C378.783 591.948 379.885 567.499 389.95 546.222L427.9 466L482.006 491.595L444.056 571.818C440.701 578.91 440.334 587.06 443.035 594.475C445.736 601.89 451.284 607.962 458.459 611.356C465.634 614.75 473.848 615.188 481.294 612.573C488.739 609.959 494.807 604.505 498.162 597.413L536.112 517.191L590.218 542.786L552.268 623.009C542.203 644.285 524 660.645 501.663 668.489C479.325 676.334 454.684 675.02 433.159 664.838Z" fill="#FFBD14"/>
</g>
</g>
<defs>
<clipPath id="clip0">
<rect width="376" height="813" fill="white"/>
</clipPath>
</defs>
</svg>
