<svg width="49" height="51" viewBox="0 0 49 51" fill="none" xmlns="http://www.w3.org/2000/svg">
<path d="M48.7431 5.50243C49.2645 4.34199 48.7486 2.9709 47.5565 2.52659C41.5224 0.277616 34.9706 -0.274994 28.619 0.952213C21.5117 2.32544 15.0019 5.8602 9.97953 11.0733C4.95718 16.2864 1.66741 22.9233 0.559939 30.0769C-0.429772 36.4698 0.366557 42.9965 2.83878 48.9426C3.3272 50.1173 4.71656 50.5818 5.85676 50.0175V50.0175C6.99696 49.4532 7.45505 48.0741 6.97828 46.8946C4.92034 41.8034 4.26829 36.2365 5.11276 30.7818C6.07503 24.5661 8.93348 18.7993 13.2973 14.2697C17.6612 9.74011 23.3175 6.6688 29.493 5.47561C34.9125 4.4285 40.4998 4.87268 45.6641 6.73952C46.8606 7.17201 48.2216 6.66286 48.7431 5.50243V5.50243Z" fill="url(#paint0_linear)"/>
<defs>
<linearGradient id="paint0_linear" x1="47.5622" y1="4.54772" x2="5.64981" y2="49.847" gradientUnits="userSpaceOnUse">
<stop stop-color="#78FFBF"/>
<stop offset="1" stop-color="#016938"/>
</linearGradient>
</defs>
</svg>
