<svg width="17" height="17" viewBox="0 0 17 17" fill="none" xmlns="http://www.w3.org/2000/svg">
<path fill-rule="evenodd" clip-rule="evenodd" d="M4.87552 5.89274V3.38888C4.87552 1.53256 6.54388 0 8.46698 0C10.3906 0 12.058 1.53227 12.058 3.38888V5.89274H12.8258C13.9211 5.89274 14.8071 6.7525 14.8047 7.8938L14.1657 14.5044C14.1657 15.5969 13.2781 16.4752 12.1843 16.4752H4.74745C3.65267 16.4752 2.76644 15.6088 2.76888 14.5681L2.125 7.84839C2.125 6.7576 3.01126 5.89274 4.10601 5.89274H4.87552ZM10.9955 5.89274V3.38888C10.9955 2.14006 9.82293 1.0625 8.46698 1.0625C7.11149 1.0625 5.93802 2.14045 5.93802 3.38888V5.89274H10.9955ZM4.10603 6.95524C3.59235 6.95524 3.18752 7.35029 3.18508 7.79753L3.82897 14.5172C3.82897 15.0166 4.23418 15.4127 4.74748 15.4127H12.1844C12.6938 15.4127 13.1032 15.0076 13.1057 14.4534L13.7447 7.84288C13.7447 7.34659 13.3413 6.95524 12.8258 6.95524H4.10603ZM8.46518 10.3897C8.74699 10.3897 8.96376 10.5888 8.97776 10.8414L8.75403 12.6927H8.17813L7.95389 10.847C7.96797 10.5922 8.1863 10.3897 8.46518 10.3897ZM7.2369 13.7552L6.89454 10.9373L6.89066 10.8732C6.89066 10.0117 7.5975 9.32722 8.46517 9.32722C9.33383 9.32722 10.041 10.0058 10.041 10.8674L10.0371 10.9311L9.69585 13.7552H7.2369Z" fill="black"/>
<mask id="mask0" mask-type="alpha" maskUnits="userSpaceOnUse" x="2" y="0" width="13" height="17">
<path fill-rule="evenodd" clip-rule="evenodd" d="M4.87552 5.89274V3.38888C4.87552 1.53256 6.54388 0 8.46698 0C10.3906 0 12.058 1.53227 12.058 3.38888V5.89274H12.8258C13.9211 5.89274 14.8071 6.7525 14.8047 7.8938L14.1657 14.5044C14.1657 15.5969 13.2781 16.4752 12.1843 16.4752H4.74745C3.65267 16.4752 2.76644 15.6088 2.76888 14.5681L2.125 7.84839C2.125 6.7576 3.01126 5.89274 4.10601 5.89274H4.87552ZM10.9955 5.89274V3.38888C10.9955 2.14006 9.82293 1.0625 8.46698 1.0625C7.11149 1.0625 5.93802 2.14045 5.93802 3.38888V5.89274H10.9955ZM4.10603 6.95524C3.59235 6.95524 3.18752 7.35029 3.18508 7.79753L3.82897 14.5172C3.82897 15.0166 4.23418 15.4127 4.74748 15.4127H12.1844C12.6938 15.4127 13.1032 15.0076 13.1057 14.4534L13.7447 7.84288C13.7447 7.34659 13.3413 6.95524 12.8258 6.95524H4.10603ZM8.46518 10.3897C8.74699 10.3897 8.96376 10.5888 8.97776 10.8414L8.75403 12.6927H8.17813L7.95389 10.847C7.96797 10.5922 8.1863 10.3897 8.46518 10.3897ZM7.2369 13.7552L6.89454 10.9373L6.89066 10.8732C6.89066 10.0117 7.5975 9.32722 8.46517 9.32722C9.33383 9.32722 10.041 10.0058 10.041 10.8674L10.0371 10.9311L9.69585 13.7552H7.2369Z" fill="white"/>
</mask>
<g mask="url(#mask0)">
<rect x="-22.8438" y="-23.375" width="69.0625" height="69.0625" fill="#D1D1D1"/>
</g>
</svg>
