<svg width="97" height="96" viewBox="0 0 97 96" fill="none" xmlns="http://www.w3.org/2000/svg">
<path d="M59.6154 50.5614C59.6154 51.0292 59.427 51.4523 59.1225 51.7586C58.8174 52.0649 58.3966 52.2544 57.9319 52.2544H38.4528C37.5234 52.2544 36.7693 51.4966 36.7693 50.5614C36.7693 50.3109 36.8232 50.0735 36.92 49.8599C37.0043 49.6741 37.1205 49.5068 37.2623 49.3641C37.5673 49.0579 37.9881 48.8684 38.4528 48.8684H57.9319C58.6128 48.8684 59.1994 49.2747 59.4648 49.8599C59.5615 50.0735 59.6154 50.3109 59.6154 50.5614Z" fill="#884D00"/>
<path d="M59.6154 50.1384C59.5331 50.3757 59.4193 50.5908 59.2814 50.7728C58.9837 51.1652 58.5731 51.4079 58.1196 51.4079H39.1111C38.4473 51.4079 37.8748 50.8875 37.6154 50.1385C37.6976 49.9005 37.8109 49.6862 37.9493 49.5035C38.247 49.1111 38.6576 48.8684 39.1111 48.8684H58.1196C58.7839 48.8683 59.3564 49.3888 59.6154 50.1384Z" fill="#AA6100"/>
<path d="M61.3077 53.7857C61.3077 55.8339 60.3174 57.3557 58.7166 58.3652C57.1153 59.3752 54.9035 59.8728 52.4605 59.8728H44.7703C39.8843 59.8728 35.9231 57.882 35.9231 53.7857C35.9231 53.5574 35.9824 53.341 36.0898 53.1463C36.1806 52.9803 36.306 52.8306 36.4583 52.7031C36.7886 52.4259 37.2458 52.2544 37.7499 52.2544H59.4809C60.2173 52.2544 60.8521 52.62 61.1411 53.1463C61.2484 53.341 61.3077 53.5575 61.3077 53.7857Z" fill="#FFA733"/>
<path d="M61.3078 52.353C60.9701 53.798 60.1239 54.9235 58.933 55.7361C57.3644 56.8062 55.1979 57.3334 52.8049 57.3334H45.2721C41.0614 57.3334 37.5523 55.701 36.7693 52.353C36.8583 52.1771 36.9811 52.0184 37.1302 51.8833C37.4538 51.5896 37.9016 51.408 38.3955 51.408H59.6816C60.403 51.408 61.0247 51.7954 61.3078 52.353Z" fill="#FFB655"/>
<path d="M55.3846 48.022L51.1075 52.4026C51.0001 52.5121 50.8854 52.609 50.7641 52.6927C49.8585 53.3206 48.6179 53.2243 47.8156 52.4026L43.5385 48.022H55.3846Z" fill="#EEBF00"/>
<path d="M55.3846 48.8684L51.2013 52.838C51.0962 52.9373 50.9841 53.025 50.8655 53.1009C50.5463 52.9978 50.2467 52.8256 49.9923 52.5838L46.0769 48.8684H55.3846Z" fill="#FFD422"/>
<path d="M61.3078 49.0465C61.3078 49.3039 61.2704 49.5672 61.1895 49.8241C60.8727 50.8308 60.0244 51.2217 59.3633 50.6655L58.5704 49.9989C58.0171 49.533 57.3114 49.7237 56.9111 50.4476L56.8773 50.5084C56.4931 51.204 55.8231 51.4106 55.2761 51.0032L53.5006 49.6812C53.0909 49.3765 52.5999 49.4096 52.2121 49.7692L50.7892 51.087C50.3806 51.4655 49.86 51.4815 49.4405 51.1278L47.8174 49.7579C47.4026 49.4078 46.8882 49.419 46.4812 49.7874L45.0034 51.1237C44.6067 51.4821 44.1078 51.5027 43.6977 51.1786L41.7843 49.6647C41.4078 49.3671 40.9541 49.3588 40.5724 49.6428L38.7877 50.9719C37.5991 51.1461 37.021 50.1524 37.021 50.1524C36.7363 49.5891 36.7078 48.9213 36.8618 48.361C37.0449 47.6915 37.4883 47.1754 38.0648 47.1754H60.013C60.5782 47.1754 61.0299 47.6838 61.2155 48.358C61.2756 48.5741 61.3078 48.8074 61.3078 49.0465Z" fill="#6DC82A"/>
<path d="M61.3078 48.2275C61.2999 48.2538 61.291 48.2795 61.2817 48.3058C60.9624 49.2018 60.1077 49.5495 59.4415 49.0548L58.6426 48.4612C58.0852 48.0474 57.3741 48.217 56.9707 48.8604L56.9367 48.915C56.5496 49.5337 55.8745 49.7176 55.3233 49.3551L53.5344 48.1792C53.1216 47.9076 52.6268 47.9376 52.236 48.2574L50.8024 49.4297C50.3907 49.7664 49.8661 49.7801 49.4434 49.4655L47.8081 48.2469C47.3901 47.9355 46.8718 47.946 46.4617 48.2732L44.9726 49.4623C44.5729 49.7806 44.0703 49.7995 43.657 49.5111L41.7291 48.1644C41.3497 47.8992 40.8926 47.8918 40.5081 48.145L38.7097 49.3267C37.5122 49.4822 36.9297 48.5977 36.9297 48.5977C36.8623 48.4796 36.809 48.3561 36.7693 48.2301C36.9537 47.6345 37.4005 47.1754 37.9814 47.1754H60.0962C60.6656 47.1755 61.1207 47.6277 61.3078 48.2275Z" fill="#7ED63E"/>
<path d="M60.4612 46.216C60.4649 46.3826 60.442 46.5432 60.3973 46.6948C60.1964 47.3693 59.5513 47.8626 58.7867 47.8626C55.7847 47.8626 47.7888 47.7976 46.5829 47.8361C46.5559 47.8371 46.5289 47.8381 46.5024 47.8386C44.9795 47.8941 44.6326 48.1293 44.6326 48.9113V51.7728C44.6326 51.9199 44.5708 52.0534 44.4706 52.15C44.3703 52.2466 44.2322 52.3061 44.0795 52.3061C43.7735 52.3061 43.5258 52.5448 43.5258 52.8395V54.0858C43.5258 54.2124 43.5102 54.335 43.4801 54.4531C43.3092 55.1345 42.6709 55.6404 41.9043 55.6404H41.8632C40.9917 55.6404 40.2864 54.9584 40.289 54.1188L40.2963 51.8628C40.2968 51.6897 40.37 51.5326 40.4879 51.4195C40.6063 51.306 40.7689 51.2359 40.9491 51.2359C41.3096 51.2359 41.602 50.9542 41.602 50.607V48.9113C41.602 48.3319 41.1148 47.8626 40.5134 47.8626H38.4763C37.5596 47.8626 36.7883 47.1657 36.7696 46.2826C36.7509 45.3765 37.5082 44.636 38.4446 44.636H58.7535C59.6707 44.636 60.4431 45.3329 60.4612 46.216Z" fill="#FF3501"/>
<path d="M59.615 46.2709C59.6186 46.4433 59.5964 46.6095 59.5531 46.7663C56.4724 46.7632 49.1112 46.7006 47.9744 46.7389C46.4318 46.7911 46.0839 47.0288 46.0839 47.852V47.9498C44.6078 48.0072 44.2715 48.2506 44.2715 49.0598V52.0205C44.2715 52.1727 44.2115 52.3109 44.1144 52.4109C44.0172 52.5108 43.8833 52.5724 43.7353 52.5724C43.4387 52.5724 43.1986 52.8193 43.1986 53.1243V54.4139C43.1986 54.5448 43.1835 54.6717 43.1542 54.7939C42.4262 54.6733 41.8709 54.0225 41.8734 53.2397L41.8805 50.9059C41.881 50.7262 41.952 50.5642 42.0663 50.4472C42.181 50.3297 42.3386 50.2572 42.5133 50.2572C42.8628 50.2572 43.1462 49.9657 43.1462 49.6064V47.8519C43.1462 47.2524 42.674 46.7668 42.091 46.7668H40.1163C39.2277 46.7668 38.4801 46.0457 38.4619 45.1319C38.4584 44.9595 38.4805 44.7934 38.5244 44.636H57.9597C58.8488 44.636 59.5974 45.3571 59.615 46.2709Z" fill="#FF5023"/>
<path d="M50.3077 42.943L46.6722 46.301C46.3078 46.6373 45.8783 46.8768 45.4207 47.0184C44.2926 47.3703 42.9964 47.1308 42.0986 46.301L38.4615 42.943H50.3077Z" fill="#EEBF00"/>
<path d="M51.1538 42.943L47.3772 46.4304C46.9987 46.7797 46.5525 47.0284 46.0772 47.1754C45.6024 47.0284 45.1562 46.7797 44.7782 46.4304L41 42.943H51.1538Z" fill="#FFD422"/>
<path d="M61.3077 43.332C61.3077 43.358 61.3067 43.3835 61.3051 43.409C61.285 43.7383 61.1364 44.0352 60.9062 44.2542C60.658 44.4903 60.3153 44.636 59.9366 44.636H37.2943C36.5372 44.636 35.9231 44.0519 35.9231 43.332C35.9231 41.7694 36.6848 40.5929 37.8351 39.708C38.7686 38.9896 39.9586 38.4629 41.2044 38.0767C44.6898 36.9975 48.6154 37.0176 48.6154 37.0176C48.6154 37.0176 61.3077 36.9523 61.3077 43.332Z" fill="#FFA733"/>
<path d="M61.3077 43.7079C61.3077 43.7355 61.3067 43.7625 61.3051 43.7895H39.8478C39.0824 43.7895 38.4615 43.1707 38.4615 42.4079C38.4615 40.7522 39.2316 39.5058 40.3945 38.5683C40.5813 38.4174 40.778 38.275 40.9835 38.1398C44.5073 36.9963 48.476 37.0176 48.476 37.0176C48.476 37.0176 61.3077 36.9485 61.3077 43.7079Z" fill="#FFB655"/>
<path d="M55.2208 39.417C55.4347 39.6404 55.4246 39.9927 55.1983 40.2038C54.9719 40.4149 54.6151 40.4049 54.4012 40.1815C54.1873 39.9582 53.7937 39.1841 54.02 38.973C54.2464 38.7618 55.007 39.1935 55.2208 39.417Z" fill="#FFF5CC"/>
<path d="M52.2319 42.1676C52.3436 42.4545 52.1984 42.7765 51.9077 42.8867C51.617 42.9969 51.2908 42.8536 51.1791 42.5666C51.0675 42.2797 51.0019 41.416 51.2926 41.3058C51.5833 41.1957 52.1203 41.8806 52.2319 42.1676Z" fill="#FFF5CC"/>
<path d="M49.1552 39.8785C49.1552 40.1859 48.9027 40.4351 48.5913 40.4351C48.2799 40.4351 48.0275 40.1859 48.0275 39.8785C48.0275 39.5711 48.2799 38.7417 48.5913 38.7417C48.9027 38.7417 49.1552 39.5711 49.1552 39.8785Z" fill="#FFF5CC"/>
<path d="M46.0548 42.5164C45.9769 42.814 45.6693 42.993 45.3678 42.9161C45.0663 42.8393 44.885 42.5357 44.9629 42.2381C45.0407 41.9405 45.4953 41.1997 45.7969 41.2766C46.0984 41.3534 46.1326 42.2189 46.0548 42.5164Z" fill="#FFF5CC"/>
<path d="M42.9528 40.0921C42.817 40.3687 42.4798 40.4844 42.1995 40.3504C41.9193 40.2163 41.8021 39.8835 41.9379 39.6068C42.0737 39.3302 42.6672 38.6923 42.9475 38.8264C43.2277 38.9604 43.0886 39.8155 42.9528 40.0921Z" fill="#FFF5CC"/>
</svg>
