<svg width="50" height="50" viewBox="0 0 50 50" fill="none" xmlns="http://www.w3.org/2000/svg">
<path d="M0 20C0 8.9543 8.95431 0 20 0H30C41.0457 0 50 8.95431 50 20V30C50 41.0457 41.0457 50 30 50H20C8.9543 50 0 41.0457 0 30V20Z" fill="#1EF2FF"/>
<path d="M25.4446 36.7775H22.3335V29.8209L31.7079 20.4471C32.5701 19.5849 31.9595 18.111 30.7401 18.111H10.3714C9.15198 18.111 8.54143 19.5849 9.40364 20.4471L18.778 29.8209V36.7775H15.6669C14.4397 36.7775 13.4447 37.7725 13.4447 38.9997C13.4447 39.2453 13.6436 39.4442 13.8892 39.4442H27.2224C27.4679 39.4442 27.6668 39.2453 27.6668 38.9997C27.6668 37.7725 26.6718 36.7775 25.4446 36.7775ZM33.0001 11C29.5218 11 26.5918 13.2333 25.4902 16.3333H28.409C29.334 14.7472 31.0351 13.6666 33.0001 13.6666C35.9406 13.6666 38.3334 16.0588 38.3334 18.9999C38.3334 21.941 35.9406 24.3332 33.0001 24.3332C32.2201 24.3332 31.484 24.1554 30.8157 23.8532L28.8568 25.8121C30.0684 26.551 31.4773 26.9998 33.0001 26.9998C37.4184 26.9998 41 23.4182 41 18.9999C41 14.5816 37.4184 11 33.0001 11Z" fill="#1EF2FF"/>
</svg>
