<svg width="50" height="50" viewBox="0 0 50 50" fill="none" xmlns="http://www.w3.org/2000/svg">
<rect width="50" height="50" rx="20" fill="#EFF1F5"/>
<path d="M34.6007 13L39 20.5H34.0854L30.7215 13H34.6007ZM28.3785 13L31.7424 20.5H18.2576L21.6215 13H28.3785ZM15.3993 13H19.2785L15.9146 20.5H11L15.3993 13ZM11 22H15.8951L21.8743 33.7984C21.9472 33.9438 21.7431 34.075 21.6313 33.9531L11 22ZM18.2042 22H31.7958L25.1361 36.9156C25.0875 37.0281 24.9174 37.0281 24.8687 36.9156L18.2042 22ZM28.1257 33.7984L34.1049 22H39L28.3687 33.9484C28.2569 34.075 28.0528 33.9438 28.1257 33.7984Z" fill="#5548BD"/>
</svg>
