<svg width="97" height="96" viewBox="0 0 97 96" fill="none" xmlns="http://www.w3.org/2000/svg">
<path d="M48.3113 60.7194C49.1375 60.7194 49.8307 60.1441 50.0235 59.3669C48.8662 58.35 48.134 56.8486 48.134 55.1738C48.134 53.4733 48.8888 51.9521 50.077 50.9349V43.8869C50.077 42.8981 49.2864 42.0966 48.3113 42.0966H36.6116C35.6367 42.0966 34.8462 42.8981 34.8462 43.8869V58.929C34.8462 59.9179 35.6367 60.7194 36.6116 60.7194" fill="#5B9ED6"/>
<path d="M48.3115 42.0966H47.0036C47.9787 42.0966 48.7692 42.8981 48.7692 43.8869V50.0317C48.7692 50.3111 48.6707 50.5807 48.4927 50.7941C47.9547 51.4387 47.5332 52.1865 47.2612 53.0041C46.9814 53.6706 46.8263 54.4036 46.8263 55.1736C46.8263 55.9474 46.9827 56.684 47.265 57.3529C47.2668 57.3586 47.2687 57.3643 47.2706 57.3699C47.5299 58.1387 46.9754 58.9395 46.1741 58.9395H36.6116C35.6367 58.9395 34.8462 58.1378 34.8462 57.149V58.929C34.8462 59.9179 35.6367 60.7194 36.6118 60.7194H48.3115C48.8848 60.7194 49.3941 60.4421 49.7166 60.0126C49.7184 60.0101 49.7203 60.0076 49.7224 60.0048C49.7352 59.9874 49.7481 59.9695 49.7605 59.9515C49.7638 59.9466 49.7669 59.9418 49.7702 59.937C49.781 59.921 49.7918 59.9046 49.8021 59.888C49.8058 59.882 49.8098 59.8757 49.8135 59.8696C49.8228 59.8542 49.8319 59.8387 49.8408 59.8229C49.845 59.8158 49.8491 59.8084 49.8531 59.8013C49.8614 59.7864 49.8694 59.7713 49.8771 59.7561C49.8812 59.7482 49.8854 59.74 49.8895 59.7318C49.8968 59.7171 49.9038 59.7024 49.9106 59.6875C49.9146 59.6786 49.9187 59.67 49.9225 59.6614C49.9291 59.6465 49.9353 59.6316 49.9415 59.6167C49.9452 59.6076 49.949 59.5986 49.9525 59.5896C49.9585 59.5743 49.9641 59.5589 49.9697 59.5436C49.973 59.5346 49.9763 59.5255 49.9794 59.5165C49.9852 59.4999 49.9904 59.4831 49.9956 59.4663C49.998 59.4583 50.0007 59.4503 50.0032 59.4424C50.0105 59.4174 50.0173 59.3924 50.0237 59.3669C49.9641 59.3144 49.9057 59.2605 49.8483 59.2054C49.8415 59.1989 49.8346 59.1926 49.8278 59.1859C49.7727 59.1325 49.7187 59.0779 49.6658 59.0223C49.6584 59.0145 49.6511 59.0067 49.6439 58.999C49.5907 58.9425 49.5387 58.8849 49.4879 58.8259C49.483 58.82 49.4778 58.8141 49.4728 58.8083C49.42 58.7465 49.3682 58.6839 49.3181 58.6199C48.577 57.6734 48.134 56.476 48.134 55.1738C48.134 53.4733 48.889 51.9521 50.077 50.9349V43.8869C50.0772 42.8981 49.2866 42.0966 48.3115 42.0966V42.0966Z" fill="#4C83B3"/>
<path d="M38.2308 40.4036H46.6924V42.0965H38.2308V40.4036Z" fill="#5A67AD"/>
<path d="M45 40.4036H46.6923V42.0965H45V40.4036Z" fill="#48538A"/>
<path d="M36.5385 38.2873V39.8097C36.5385 40.1376 36.8363 40.4035 37.2033 40.4035H47.7198C48.087 40.4035 48.3846 40.1376 48.3846 39.8097V36.7648C48.3846 36.4369 48.087 36.171 47.7198 36.171H37.2033C36.8361 36.171 36.5385 36.437 36.5385 36.7648V38.2873Z" fill="#5B9ED6"/>
<path d="M45 36.171V40.4035H47.6306C48.0471 40.4035 48.3846 40.1376 48.3846 39.8097V36.7648C48.3846 36.4369 48.0471 36.171 47.6306 36.171H45Z" fill="#4C83B3"/>
<path d="M47.5385 51.8312C47.5385 54.4023 45.455 56.4868 42.8847 56.4868C40.3146 56.4868 38.2308 54.4023 38.2308 51.8312C38.2308 49.2599 40.3146 47.1754 42.8847 47.1754C45.455 47.1754 47.5385 49.2599 47.5385 51.8312Z" fill="#EF2D57"/>
<path d="M45.5285 48.022C46.0436 48.7697 46.346 49.6757 46.346 50.6524C46.346 53.2158 44.2687 55.2937 41.7065 55.2937C40.7299 55.2937 39.8245 54.9915 39.0769 54.4759C39.9137 55.6903 41.313 56.4869 42.8989 56.4869C45.4614 56.4869 47.5384 54.4088 47.5384 51.8455C47.5384 50.259 46.7424 48.8591 45.5285 48.022Z" fill="#D9294F"/>
<path d="M59.3846 55.2171C59.3846 58.256 56.9223 60.7193 53.8845 60.7193C50.847 60.7193 48.3846 58.256 48.3846 55.2171C48.3846 52.1783 50.847 49.715 53.8845 49.715C56.9223 49.715 59.3846 52.1783 59.3846 55.2171Z" fill="#FCDA55"/>
<path d="M56.4893 50.5614C57.1504 51.5106 57.543 52.6948 57.543 53.9789C57.543 57.1016 55.2236 59.6328 52.3623 59.6328C51.1857 59.6328 50.1006 59.2043 49.2308 58.4829C50.1771 59.8418 51.6734 60.7193 53.3581 60.7193C56.2192 60.7193 58.5385 58.1881 58.5385 55.0654C58.5385 53.2271 57.7345 51.5942 56.4893 50.5614Z" fill="#D9BC4A"/>
<path d="M49.2308 58.5139C49.4466 58.7014 49.6769 58.8728 49.9195 59.0263L57.6924 51.2501C57.5389 51.0074 57.3678 50.777 57.1802 50.5614C57.1454 50.5806 57.1123 50.6047 57.0827 50.6344L49.3038 58.4164C49.2742 58.446 49.25 58.4789 49.2308 58.5139Z" fill="#D9BC4A"/>
<path d="M56.9515 42.9973C54.9941 43.4683 53.4615 45.0669 53.4615 47.1393V49.7625C53.4821 49.7623 53.5024 49.7617 53.5229 49.7617C56.5468 49.7617 58.9979 52.1994 58.9979 55.2068C58.9979 56.6906 58.4009 58.0356 57.433 59.0177C57.5189 59.023 57.6051 59.0263 57.6922 59.0263C60.0289 59.0263 61.9231 57.1425 61.9231 54.8187V47.1393C61.9231 45.0669 60.4162 43.3458 58.4331 42.9973C58.4331 42.9973 57.4587 42.8752 56.9515 42.9973Z" fill="#F084AD"/>
<path d="M58.391 42.9973C57.8533 42.9249 57.3536 42.9249 56.8915 42.9973C56.8764 43 56.8613 43.0035 56.8462 43.0061C58.8306 43.3728 60.3328 45.0826 60.3328 47.1393V54.8187C60.3328 56.5852 59.2245 58.0967 57.6542 58.7203C57.566 58.8228 57.4743 58.922 57.3788 59.0177C57.4657 59.023 57.553 59.0263 57.6413 59.0263C60.006 59.0263 61.9231 57.1425 61.9231 54.8187V47.1393C61.9231 45.067 60.3981 43.3458 58.391 42.9973Z" fill="#D47499"/>
<path d="M56.8462 50.5614C58.1131 51.6115 58.9229 53.2135 58.9229 55.0084C58.9229 56.5694 58.3107 57.9842 57.3179 59.0172C57.4059 59.0226 57.4944 59.0263 57.5837 59.0263C59.9803 59.0263 61.9231 57.0447 61.9231 54.6004V50.5614H56.8462Z" fill="#EF2D57"/>
<path d="M60.4426 54.6004C60.4426 56.4586 59.4108 58.0482 57.9487 58.7044C57.9106 58.7545 57.8717 58.8035 57.8321 58.8521C57.8252 58.8604 57.8184 58.8686 57.8118 58.8769C57.7725 58.9244 57.7328 58.9714 57.6924 59.0172C57.7733 59.0228 57.8545 59.0263 57.9366 59.0263C60.1384 59.0263 61.9232 57.0447 61.9232 54.6004V50.5614H60.4426V54.6004Z" fill="#CC264B"/>
<path d="M44.5773 50.9851H42.8842V49.2913C42.8842 49.0578 42.6949 48.8684 42.4615 48.8684C42.228 48.8684 42.0389 49.0578 42.0389 49.2913V50.9851H40.3458C40.1124 50.9851 39.9231 51.1742 39.9231 51.4078C39.9231 51.6413 40.1124 51.8307 40.3458 51.8307H42.0389V53.5244C42.0389 53.758 42.228 53.9474 42.4615 53.9474C42.6949 53.9474 42.8842 53.758 42.8842 53.5244V51.8307H44.5773C44.8107 51.8307 45 51.6413 45 51.4078C45 51.1742 44.8107 50.9851 44.5773 50.9851Z" fill="white"/>
<path d="M39.5335 41.2489C39.3073 41.2489 39.1238 41.0485 39.1238 40.8014V35.7721C39.1238 35.525 39.3073 35.3246 39.5335 35.3246C39.7598 35.3246 39.9433 35.525 39.9433 35.7721V40.8014C39.9433 41.0485 39.7598 41.2489 39.5335 41.2489Z" fill="#674297"/>
<path d="M42.4745 41.2489C42.2482 41.2489 42.0647 41.0485 42.0647 40.8014V35.7721C42.0647 35.525 42.2482 35.3246 42.4745 35.3246C42.7007 35.3246 42.884 35.525 42.884 35.7721V40.8014C42.8842 41.0485 42.7007 41.2489 42.4745 41.2489Z" fill="#674297"/>
<path d="M45.4155 41.2489C45.1892 41.2489 45.0057 41.0485 45.0057 40.8014V35.7721C45.0057 35.525 45.1892 35.3246 45.4155 35.3246C45.6418 35.3246 45.825 35.525 45.825 35.7721V40.8014C45.8252 41.0485 45.6418 41.2489 45.4155 41.2489Z" fill="#674297"/>
<path d="M49.6546 59.0263C49.5462 59.0263 49.4378 58.9847 49.3549 58.902C49.1895 58.7363 49.1895 58.4678 49.3549 58.3021L56.9685 50.6856C57.1341 50.5201 57.4025 50.5199 57.5681 50.6856C57.7338 50.8513 57.7338 51.1198 57.5681 51.2855L49.9546 58.902C49.8717 58.9847 49.7633 59.0263 49.6546 59.0263Z" fill="#E69326"/>
</svg>
