<svg width="19" height="19" viewBox="0 0 19 19" fill="none" xmlns="http://www.w3.org/2000/svg">
<path fill-rule="evenodd" clip-rule="evenodd" d="M18.047 13.7887V16.3601C18.0489 16.8428 17.8473 17.3039 17.4916 17.6303C17.1359 17.9566 16.6591 18.1178 16.1784 18.0744C13.5408 17.7878 11.0072 16.8865 8.78125 15.4429C6.71024 14.1269 4.95439 12.3711 3.63839 10.3001C2.1898 8.06397 1.28831 5.51808 1.00696 2.86866C0.963655 2.3894 1.12377 1.91401 1.44819 1.55862C1.77261 1.20322 2.23147 1.00054 2.71268 1.00008H5.28411C6.14456 0.991616 6.87796 1.62234 6.99839 2.47437C7.10693 3.29728 7.30821 4.10528 7.59839 4.88294C7.83388 5.50941 7.68326 6.21563 7.21268 6.69151L6.12411 7.78008C7.3443 9.92598 9.12107 11.7028 11.267 12.9229L12.3555 11.8344C12.8314 11.3638 13.5376 11.2132 14.1641 11.4487C14.9418 11.7388 15.7498 11.9401 16.5727 12.0487C17.4346 12.1703 18.0686 12.9185 18.047 13.7887V13.7887Z" stroke="#C1C7C4" stroke-width="1.3" stroke-linecap="round" stroke-linejoin="round"/>
</svg>
