<svg width="42" height="42" viewBox="0 0 42 42" fill="none" xmlns="http://www.w3.org/2000/svg">
<rect x="0.25" y="0.25" width="41.5" height="41.5" rx="20.75" fill="white" stroke="#F2F2F2" stroke-width="0.5"/>
<g clip-path="url(#clip0)">
<path d="M31.2502 29.6717L31.2247 29.6493C31.1869 29.6578 31.1475 29.6647 31.1105 29.6717H31.2502Z" fill="black"/>
<path d="M27.7095 26.8208C27.7095 26.7506 27.7095 26.6811 27.718 26.6117L12 13V29.6716H30.099C29.4294 29.5526 28.823 29.2017 28.3861 28.6805C27.9492 28.1592 27.7097 27.5009 27.7095 26.8208Z" fill="#016938"/>
<path d="M30.6051 29.7164C30.7746 29.716 30.9437 29.701 31.1105 29.6716H30.099C30.2661 29.701 30.4355 29.716 30.6051 29.7164Z" fill="black"/>
<path d="M33.5 26.8208C33.4995 26.0716 33.2084 25.3517 32.6881 24.8126C32.1677 24.2734 31.4586 23.9571 30.7098 23.93C29.961 23.9029 29.2309 24.1672 28.6729 24.6674C28.115 25.1675 27.7727 25.8645 27.718 26.6118L31.2247 29.6493C31.8696 29.5078 32.4467 29.1502 32.8605 28.6358C33.2743 28.1214 33.4999 27.481 33.5 26.8208Z" fill="#4DE897"/>
<path d="M27.7095 26.8208C27.7089 27.5019 27.9484 28.1615 28.3858 28.6836C28.8232 29.2057 29.4306 29.5569 30.1013 29.6756H31.1128C31.1514 29.6686 31.19 29.6617 31.227 29.6532L27.7203 26.6156C27.7126 26.6812 27.7095 26.7506 27.7095 26.8208Z" fill="#1EC572"/>
</g>
<defs>
<clipPath id="clip0">
<rect width="21.5" height="16.7164" fill="white" transform="translate(12 13)"/>
</clipPath>
</defs>
</svg>
