<svg width="71" height="83" viewBox="0 0 71 83" fill="none" xmlns="http://www.w3.org/2000/svg">
<path d="M7.784 70.578C7.784 69.318 6.944 68.604 5.866 68.422C6.804 68.254 7.532 67.554 7.532 66.532C7.532 65.132 6.636 64.18 4.452 64.18H0.854V73H4.606C6.664 73 7.784 72.104 7.784 70.578ZM4.578 68.926C5.894 68.926 6.58 69.514 6.58 70.48C6.58 71.432 5.894 72.006 4.578 72.006H2.03V68.926H4.578ZM2.03 65.174H4.494C5.768 65.174 6.314 65.748 6.314 66.588C6.314 67.442 5.768 67.988 4.494 67.988H2.03V65.174ZM9.06948 66.882V73H10.2315V66.882H9.06948ZM9.04148 65.496H10.2455V64.18H9.04148V65.496ZM12.6155 69.948C12.6155 68.576 13.3015 67.624 14.5335 67.624C15.7795 67.624 16.4795 68.576 16.4795 69.948C16.4795 71.306 15.7795 72.272 14.5335 72.272C13.3015 72.272 12.6155 71.306 12.6155 69.948ZM17.6695 69.948C17.6695 68.044 16.3395 66.714 14.5335 66.714C12.7415 66.714 11.4255 68.044 11.4255 69.948C11.4255 71.852 12.7415 73.168 14.5335 73.168C16.3395 73.168 17.6695 71.852 17.6695 69.948ZM23.9822 68.044C23.7162 67.246 23.0722 66.714 21.9802 66.714C21.0422 66.714 20.3282 67.232 20.0342 67.974V66.882H18.8722V73H20.0342V69.486C20.0342 68.366 20.7202 67.638 21.5882 67.638C22.5262 67.638 22.9462 68.282 22.9462 69.304V73H24.1082V69.486C24.1082 68.366 24.8082 67.638 25.6762 67.638C26.6142 67.638 27.0342 68.282 27.0342 69.304V73H28.1962V69.206C28.1962 67.82 27.6362 66.714 26.0402 66.714C25.0602 66.714 24.3042 67.288 23.9822 68.044ZM34.3757 70.83C34.1237 71.768 33.5217 72.258 32.4997 72.258C31.4077 72.258 30.5537 71.418 30.4977 70.228H35.3697V69.766C35.3697 68.1 34.3757 66.714 32.4297 66.714C30.6657 66.714 29.3357 68.1 29.3357 70.032C29.3357 71.936 30.6657 73.168 32.4857 73.168C34.0117 73.168 35.0337 72.328 35.3417 70.942L34.3757 70.83ZM30.5257 69.472C30.6657 68.464 31.3237 67.596 32.4297 67.596C33.5917 67.596 34.1377 68.492 34.1797 69.472H30.5257ZM36.7873 71.572C36.7873 72.762 37.4033 73.168 38.2713 73.168C38.9433 73.168 39.3913 72.986 39.8393 72.65V71.866C39.4893 72.062 39.0833 72.23 38.6913 72.23C38.1593 72.23 37.9353 71.978 37.9353 71.432V67.722H39.6573V66.882H37.9353V65.188H37.2773L37.0953 66.042C36.9553 66.63 36.8293 66.91 36.2553 67.022L35.8633 67.092V67.722H36.7873V71.572ZM44.6226 66.994C44.4126 66.812 44.1326 66.714 43.7546 66.714C42.8726 66.714 42.2426 67.428 42.0186 68.128V66.882H40.8566V73H42.0186V69.766C42.0186 68.59 42.6766 67.792 43.5586 67.792C43.9366 67.792 44.1746 67.862 44.5106 68.044L44.6226 66.994ZM45.4914 66.882V73H46.6534V66.882H45.4914ZM45.4634 65.496H46.6674V64.18H45.4634V65.496ZM47.8474 69.948C47.8474 71.894 49.1354 73.168 50.9834 73.168C52.7754 73.168 53.7414 71.978 53.8674 70.494L52.8454 70.396C52.7474 71.474 52.1034 72.244 50.9694 72.244C49.8214 72.244 49.0374 71.362 49.0374 69.948C49.0374 68.534 49.8214 67.652 50.9694 67.652C52.1034 67.652 52.7474 68.38 52.8454 69.458L53.8674 69.388C53.7414 67.918 52.7754 66.714 50.9834 66.714C49.1354 66.714 47.8474 68.002 47.8474 69.948ZM54.6684 70.942C54.7804 72.454 55.9424 73.168 57.4684 73.168C58.8964 73.168 59.9744 72.51 59.9744 71.292C59.9744 70.186 59.2464 69.724 58.0144 69.514L56.8664 69.332C56.2364 69.22 55.9284 68.968 55.9284 68.478C55.9284 67.918 56.4324 67.568 57.2024 67.568C58.2384 67.568 58.8124 68.002 58.9524 68.94L59.8904 68.884C59.7784 67.47 58.8264 66.714 57.2024 66.714C55.7884 66.714 54.8504 67.47 54.8504 68.59C54.8504 69.64 55.5364 70.13 56.6844 70.312L57.7204 70.494C58.4764 70.634 58.8824 70.83 58.8824 71.404C58.8824 72.02 58.2804 72.314 57.4684 72.314C56.4184 72.314 55.7604 71.81 55.6484 70.872L54.6684 70.942Z" fill="white"/>
<circle cx="29.5" cy="26.5" r="26" fill="black" stroke="#4DE897"/>
<path d="M36.1608 26.0752C35.426 24.1859 33.0631 23.1706 30.8832 23.8074C28.84 24.4043 27.6602 26.2537 28.1634 28.0708C29.6629 32.589 35.1477 36.6436 40.1711 40.0889C40.5318 40.3365 41.0558 40.2839 41.3416 39.9712C41.6273 39.6586 41.5665 39.2045 41.2058 38.9568C36.384 35.6501 31.1274 31.7788 29.7645 27.6722C29.3831 26.5218 30.1499 25.3213 31.4773 24.9907C32.8047 24.6601 34.1899 25.3247 34.5713 26.4751C35.481 29.2187 40.0045 32.6091 44.3081 35.5606C44.6688 35.8082 45.1928 35.7555 45.4786 35.4429C45.7643 35.1302 45.7035 34.6761 45.3428 34.4285C43.0702 32.8734 37.0522 28.7465 36.1608 26.0752Z" fill="white"/>
<path d="M42.4756 24.2139C40.6644 19.4014 34.7966 16.6829 29.1733 18.051C23.4242 19.4806 20.1009 24.6789 21.7506 29.6615C21.7517 29.665 21.7529 29.6686 21.7541 29.6721C23.122 33.7903 20.1896 34.9325 19.2549 35.1837C18.816 35.3033 18.5721 35.7087 18.7101 36.0891C18.8481 36.4695 19.3158 36.6809 19.7547 36.5613C22.3023 35.8711 24.7765 33.5492 23.3552 29.2721C21.9541 25.0573 24.7607 20.6563 29.6238 19.442C29.6263 19.4414 29.6289 19.4407 29.6314 19.4401C34.4398 18.2687 39.4498 20.6305 40.9277 24.7654C40.9474 24.8218 40.9754 24.8756 41.011 24.9257C41.0977 25.0499 41.276 25.3113 46.6308 29.0771C46.9878 29.3287 47.5127 29.2819 47.8029 28.9724C48.0932 28.663 48.0392 28.2082 47.6821 27.9566C45.7361 26.5878 42.8921 24.5532 42.4756 24.2139Z" fill="white"/>
<path d="M39.3662 25.2764C38.2156 21.8329 34.0688 19.8438 30.0909 20.8275C26.1851 21.8726 23.9181 25.395 24.9443 28.8243C26.6271 35.4665 25.3691 37 21.9169 37.9357C21.478 38.0553 21.2341 38.4607 21.3721 38.8411C21.5101 39.2215 21.9778 39.4328 22.4167 39.3132C27.2401 38.0137 28.2882 35.2817 26.582 28.5138C25.7531 25.8302 27.5055 23.056 30.5607 22.2152C33.6564 21.4535 36.8807 23.002 37.7767 25.6807C38.1099 26.6655 38.9946 28.017 45.8174 32.697C46.1781 32.9446 46.7021 32.8919 46.9879 32.5793C47.2736 32.2666 47.2128 31.8125 46.8521 31.5649C40.6591 27.3197 39.5994 25.9753 39.3662 25.2764Z" fill="white"/>
<path d="M41.6591 35.326C38.84 33.472 34.1215 30.3703 32.9603 26.873C32.8256 26.4918 32.3598 26.2773 31.9198 26.394C31.4907 26.5079 31.2427 26.8959 31.3591 27.2716C32.672 31.2309 37.667 34.5145 40.651 36.4769C41.2575 36.8553 41.8413 37.2602 42.4005 37.6898C42.7314 37.9669 43.2588 37.959 43.5784 37.6722C43.8903 37.3923 43.8903 36.9487 43.5784 36.669C42.9683 36.1904 42.3275 35.742 41.6591 35.326Z" fill="white"/>
<path d="M37.1504 40.3482C36.3084 38.9944 34.7575 38.0815 32.9951 37.9021C30.1627 37.9021 29.7245 42.0752 29.6628 42.9112C29.6343 43.3092 29.9834 43.6518 30.4426 43.6766H30.4959C30.9365 43.6773 31.3017 43.3805 31.329 42.9994C31.434 41.5121 32.0904 39.3461 32.9951 39.3461C34.2297 39.3461 35.1061 40.3771 35.8092 41.2045C36.0415 41.4915 36.2958 41.7646 36.5706 42.0218C36.9015 42.2989 37.4289 42.2909 37.7486 42.0041C38.0604 41.7243 38.0604 41.2807 37.7486 41.0009C37.5331 40.7948 37.3332 40.5768 37.1504 40.3482Z" fill="white"/>
<path d="M29.6248 34.0734C29.4682 33.6984 28.9905 33.5045 28.5579 33.6402C28.151 33.7679 27.9246 34.1444 28.037 34.5065C28.7501 36.4372 27.3489 40.2261 25.2413 40.8196C24.8022 40.9387 24.5577 41.3437 24.695 41.7243C24.8325 42.1048 25.2998 42.3167 25.7389 42.1977C25.7447 42.1961 25.7504 42.1945 25.7561 42.1928C28.9616 41.2976 30.5077 36.4718 29.6248 34.0734Z" fill="white"/>
<path d="M47.4139 24.2196C46.3726 23.9308 45.5545 22.7756 44.6064 21.4572C42.6005 18.6472 39.8496 14.7991 32.1622 14.7991C24.3445 14.8071 18.0093 20.2976 18.0002 27.0729C18.0002 27.4716 18.3732 27.7949 18.8333 27.7949C19.2934 27.7949 19.6664 27.4716 19.6664 27.0729C19.6737 21.0944 25.264 16.2495 32.1622 16.2431C38.9217 16.2431 41.2892 19.5556 43.192 22.2182C44.3116 23.785 45.2779 25.1379 46.9008 25.5942C47.3368 25.7215 47.8093 25.5184 47.9562 25.1406C48.1031 24.7627 47.8687 24.3532 47.4328 24.2259C47.4271 24.2242 47.4214 24.2226 47.4156 24.221L47.4139 24.2196Z" fill="white"/>
<path d="M19.6662 32.8488C20.1263 32.8488 20.4993 32.5255 20.4992 32.1268C20.4992 32.0145 20.469 31.9038 20.4109 31.8034C20.0554 31.2258 19.8042 30.6045 19.6662 29.9609C19.6662 29.5622 19.2932 29.2389 18.8331 29.2389C18.373 29.2389 18 29.5622 18 29.9609C18.1337 30.8316 18.4458 31.6746 18.9213 32.4503C19.0627 32.6945 19.351 32.8488 19.6662 32.8488Z" fill="white"/>
<path d="M19.2328 17.5814C19.6256 17.7889 20.1383 17.6812 20.3777 17.3407C20.3782 17.3401 20.3787 17.3395 20.3791 17.3388C21.1022 16.3049 24.6643 13.3548 31.3288 13.3548C37.7334 13.3548 42.2902 16.1663 43.1116 17.3388C43.3503 17.6797 43.8628 17.7883 44.2562 17.5814C44.6496 17.3745 44.7749 16.9303 44.5361 16.5894C43.3931 14.9576 38.3465 11.9109 31.3288 11.9109C23.8663 11.9109 19.8659 15.2884 18.9529 16.5908C18.7151 16.9314 18.8403 17.3745 19.2328 17.5814Z" fill="white"/>
<path d="M24.1645 11.8474C24.5461 11.703 24.8693 11.5586 25.1759 11.4142C26.4288 10.8669 27.3301 10.4669 31.3288 10.4669C34.0288 10.338 36.7293 10.7127 39.2479 11.5658C39.5661 11.6684 39.886 11.7708 40.2209 11.8705C40.3082 11.8967 40.4 11.9104 40.4925 11.9109C40.9526 11.9116 41.3262 11.589 41.327 11.1902C41.3277 10.8812 41.1013 10.6061 40.764 10.5059C40.4408 10.4092 40.1342 10.311 39.8277 10.2171C37.124 9.30326 34.2273 8.89626 31.3289 9.02297C26.9237 9.02297 25.8207 9.5139 24.4212 10.1363C24.1396 10.2619 23.8397 10.3948 23.4898 10.5305C23.0623 10.6778 22.8535 11.0976 23.0234 11.4681C23.1933 11.8386 23.6777 12.0196 24.1052 11.8724C24.1271 11.8648 24.1485 11.8565 24.1695 11.8474H24.1645Z" fill="white"/>
<path d="M46.3623 21.5158C46.5189 21.8907 46.9966 22.0846 47.4292 21.9489C47.8361 21.8213 48.0625 21.4448 47.9501 21.0826C47.4774 20.0219 46.8911 19.0018 46.199 18.0359C45.9579 17.6961 45.4447 17.5901 45.0528 17.799C44.6608 18.008 44.5384 18.4527 44.7795 18.7924C45.3997 19.6576 45.9294 20.569 46.3623 21.5158Z" fill="white"/>
<path d="M40.6824 40.2445C40.4949 40.2443 40.3129 40.1894 40.1659 40.0885C35.1426 36.6417 29.6627 32.5886 28.1632 28.0704C27.6263 26.1317 29.0044 24.183 31.2414 23.7176C33.3379 23.2815 35.4719 24.304 36.1606 26.0748C37.0469 28.7447 43.065 32.873 45.3242 34.4267C45.6937 34.6644 45.771 35.1166 45.4967 35.4367C45.2225 35.7569 44.7008 35.8239 44.3313 35.5862C44.3177 35.5774 44.3042 35.5682 44.2912 35.5588C39.9876 32.6073 35.4607 29.2183 34.5528 26.4733C34.1713 25.3233 32.7865 24.6591 31.4596 24.9896C30.1327 25.3202 29.3663 26.5204 29.7477 27.6703C31.1106 31.777 36.3672 35.6483 41.1873 38.955C41.548 39.2025 41.6089 39.6566 41.3233 39.9692C41.165 40.1424 40.924 40.2433 40.6691 40.243L40.6824 40.2445Z" fill="white"/>
<path d="M19.4994 36.5894C19.0393 36.5886 18.667 36.2648 18.6679 35.8661C18.6685 35.5512 18.9046 35.273 19.2512 35.1786C20.1825 34.9259 23.1149 33.7837 21.7504 29.667C20.097 24.6853 23.4164 19.4853 29.1644 18.0524C29.1672 18.0517 29.1701 18.0509 29.1729 18.0503C34.7969 16.6813 40.6657 19.3999 42.4769 24.2132C42.8918 24.5511 45.7359 26.5871 47.6819 27.9559C48.03 28.2165 48.0685 28.6725 47.7678 28.9743C47.48 29.2632 46.9824 29.3079 46.6322 29.0765C41.2756 25.3091 41.0974 25.0478 41.0107 24.9236C40.9762 24.8737 40.9488 24.8203 40.9291 24.7647C39.4511 20.629 34.4401 18.2671 29.6311 19.4394C24.767 20.6506 21.9568 25.05 23.3544 29.2655C23.3545 29.266 23.3547 29.2666 23.3549 29.267C24.7744 33.5426 22.3018 35.866 19.7527 36.5562C19.6708 36.5786 19.5853 36.5899 19.4994 36.5894Z" fill="white"/>
<path d="M22.1652 39.347C21.7052 39.3462 21.3329 39.0224 21.3337 38.6237C21.3343 38.3088 21.5704 38.0306 21.917 37.9362C25.3693 37.0005 26.6255 35.4641 24.9427 28.8247C23.9174 25.3955 26.1841 21.8737 30.0893 20.828C34.0673 19.8468 38.2125 21.8348 39.3663 25.2769C39.5979 25.9743 40.6559 27.3186 46.8388 31.5611C47.2083 31.7987 47.2856 32.2509 47.0114 32.5711C46.7372 32.8913 46.2154 32.9583 45.846 32.7206C45.8323 32.7118 45.8189 32.7026 45.8058 32.6931C38.9747 28.0117 38.09 26.6588 37.7651 25.6768C36.8723 22.9952 33.6442 21.4453 30.5475 22.2113C27.4889 23.0528 25.7363 25.8316 26.5704 28.5172C28.2849 35.2865 27.2368 38.0113 22.4052 39.3166C22.3274 39.337 22.2465 39.3472 22.1652 39.347Z" fill="white"/>
<path d="M42.9917 37.9023C42.7706 37.9026 42.5584 37.8268 42.4019 37.6914C41.8426 37.2614 41.2588 36.8561 40.6525 36.4771C37.6685 34.5147 32.6735 31.2311 31.3605 27.2718C31.2259 26.8905 31.4733 26.4868 31.9132 26.3701C32.3532 26.2534 32.819 26.4678 32.9537 26.8491C32.9565 26.8571 32.9591 26.8651 32.9616 26.8732C34.1279 30.3704 38.8397 33.4721 41.6588 35.3262C42.3276 35.7428 42.969 36.1916 43.5798 36.6705C43.9046 36.9529 43.9038 37.41 43.5779 37.6915C43.4223 37.8261 43.2116 37.9019 42.9917 37.9023Z" fill="white"/>
<path d="M30.4959 43.6789H30.4426C29.9834 43.6541 29.6343 43.3115 29.6628 42.9136C29.7228 42.0775 30.1627 37.9044 32.9951 37.9044C34.7611 38.0824 36.3159 38.9959 37.1603 40.352C37.3421 40.5809 37.5413 40.7989 37.7568 41.0047C38.0764 41.2915 38.0672 41.7485 37.7363 42.0256C37.4134 42.2959 36.9017 42.2959 36.5788 42.0256C36.3035 41.7693 36.0491 41.4966 35.8174 41.2098C35.1077 40.378 34.2313 39.347 32.995 39.347C32.0919 39.347 31.4339 41.513 31.3289 43.0018C31.3017 43.3828 30.9365 43.6796 30.4959 43.6789Z" fill="white"/>
<path d="M25.4976 42.2347C25.0375 42.2354 24.6638 41.9128 24.663 41.5141C24.6622 41.1999 24.896 40.9215 25.241 40.8254C27.347 40.2319 28.7399 36.4429 28.0368 34.5124C27.8721 34.14 28.0868 33.7225 28.5164 33.5798C28.9459 33.437 29.4277 33.6232 29.5924 33.9954C29.6045 34.0228 29.6147 34.0507 29.6229 34.0792C30.5076 36.4776 28.9565 41.299 25.7542 42.2058C25.6709 42.2269 25.5844 42.2367 25.4976 42.2347Z" fill="white"/>
<path d="M18.8333 27.7948C18.3732 27.7948 18.0002 27.4716 18.0002 27.0728C18.0094 20.2975 24.3445 14.807 32.1622 14.7991C39.8496 14.7991 42.6004 18.6472 44.6081 21.4572C45.5561 22.7814 46.3741 23.9264 47.4155 24.2196C47.8546 24.3387 48.0991 24.7437 47.9617 25.1243C47.8244 25.5048 47.3569 25.7167 46.9179 25.5977C46.9121 25.5961 46.9064 25.5945 46.9007 25.5928C45.2779 25.1365 44.3115 23.7835 43.1919 22.2168C41.2892 19.5556 38.9217 16.2431 32.1622 16.2431C25.2639 16.2495 19.6736 21.0944 19.6663 27.0729C19.6663 27.4716 19.2934 27.7948 18.8333 27.7948Z" fill="white"/>
<path d="M19.6663 32.8489C19.3504 32.8494 19.0614 32.6951 18.9199 32.4504C18.4445 31.6747 18.133 30.8316 18.0002 29.9609C18.0002 29.5622 18.3732 29.2389 18.8333 29.2389C19.2933 29.2389 19.6664 29.5622 19.6664 29.9609C19.8047 30.6044 20.0559 31.2258 20.4111 31.8034C20.6172 32.1599 20.4509 32.5937 20.0395 32.7723C19.9236 32.8227 19.7958 32.8489 19.6663 32.8489Z" fill="white"/>
<path d="M43.8248 17.6872C43.5332 17.6874 43.2627 17.5554 43.1117 17.3393C42.292 16.1667 37.7335 13.3553 31.3289 13.3553C24.6645 13.3553 21.1023 16.3054 20.3775 17.3393C20.1531 17.6873 19.6455 17.8118 19.2439 17.6172C18.8423 17.4227 18.6987 16.9828 18.9232 16.6347C18.9331 16.6194 18.9436 16.6045 18.9547 16.5898C19.8661 15.2889 23.8665 11.9114 31.329 11.9114C38.3467 11.9114 43.3934 14.9581 44.5363 16.5913C44.7747 16.9323 44.6488 17.3763 44.2552 17.5828C44.1253 17.651 43.9766 17.6871 43.8248 17.6872Z" fill="white"/>
<path d="M40.4925 11.9111C40.4002 11.9112 40.3084 11.8981 40.221 11.8721C39.8877 11.7724 39.5646 11.6685 39.2463 11.5674C36.7283 10.7142 34.0285 10.3389 31.3289 10.4671C27.3302 10.4671 26.4289 10.8671 25.1843 11.4201C24.8777 11.5573 24.5528 11.7003 24.173 11.8533C23.7515 12.0148 23.2588 11.8497 23.0725 11.4844C22.8861 11.1191 23.0767 10.6921 23.4982 10.5306C23.8497 10.3934 24.148 10.2606 24.4312 10.135C25.8208 9.51409 26.9254 9.0231 31.329 9.0231C34.2266 8.89504 37.1226 9.30054 39.8262 10.213C40.1327 10.3112 40.4394 10.4108 40.7625 10.5018C41.2006 10.6236 41.4418 11.0302 41.3012 11.4099C41.1887 11.7132 40.8602 11.917 40.4925 11.9111Z" fill="white"/>
<path d="M47.1572 22.0193C46.7949 22.0191 46.4743 21.816 46.3641 21.5168C45.9312 20.5681 45.4016 19.6548 44.7812 18.7877C44.5401 18.448 44.6624 18.0032 45.0545 17.7943C45.4465 17.5853 45.9597 17.6913 46.2008 18.0311C46.8923 18.9972 47.4779 20.0172 47.9502 21.0779C48.0901 21.4577 47.8481 21.864 47.4098 21.9851C47.3282 22.0077 47.2429 22.0193 47.1572 22.0193Z" fill="white"/>
</svg>
