<svg width="50" height="50" viewBox="0 0 50 50" fill="none" xmlns="http://www.w3.org/2000/svg">
<rect width="50" height="50" rx="20" fill="#EFF1F5"/>
<path d="M12.75 35.2143C12.75 36.202 13.532 37 14.5 37H23.25V28.0714H12.75V35.2143ZM37.25 19.1429H34.9477C35.2867 18.4676 35.5 17.7199 35.5 16.9107C35.5 14.2042 33.3398 12 30.6875 12C28.4125 12 26.9414 13.1886 25.0547 15.8114C23.168 13.1886 21.6969 12 19.4219 12C16.7695 12 14.6094 14.2042 14.6094 16.9107C14.6094 17.7199 14.8172 18.4676 15.1617 19.1429H12.75C11.782 19.1429 11 19.9408 11 20.9286V25.3929C11 25.8839 11.3937 26.2857 11.875 26.2857H38.125C38.6063 26.2857 39 25.8839 39 25.3929V20.9286C39 19.9408 38.218 19.1429 37.25 19.1429ZM19.4164 19.1429C18.2078 19.1429 17.2289 18.144 17.2289 16.9107C17.2289 15.6775 18.2078 14.6786 19.4164 14.6786C20.5047 14.6786 21.3086 14.8627 24.125 19.1429H19.4164ZM30.6875 19.1429H25.9789C28.7898 14.8739 29.5719 14.6786 30.6875 14.6786C31.8961 14.6786 32.875 15.6775 32.875 16.9107C32.875 18.144 31.8961 19.1429 30.6875 19.1429ZM26.75 37H35.5C36.468 37 37.25 36.202 37.25 35.2143V28.0714H26.75V37Z" fill="#FF1577"/>
</svg>
