<svg width="376" height="149" viewBox="0 0 376 149" fill="none" xmlns="http://www.w3.org/2000/svg">
<g opacity="0.3">
<g opacity="0.5">
<path opacity="0.5" d="M268.031 92.502C247.828 82.9451 232.206 65.847 224.601 44.969C216.995 24.0911 218.03 1.14344 227.476 -18.8256L263.094 -94.1189L313.876 -70.096L278.258 5.19729C275.109 11.8536 274.764 19.5028 277.299 26.4622C279.835 33.4215 285.042 39.1209 291.776 42.3065C298.51 45.4921 306.219 45.9031 313.208 43.4489C320.196 40.9947 325.891 35.8765 329.04 29.2202L364.658 -46.0731L415.44 -22.0503L379.822 53.243C370.375 73.2121 353.29 88.5668 332.325 95.9292C311.36 103.292 288.233 102.059 268.031 92.502Z" fill="#FF1577"/>
</g>
<g opacity="0.2">
<path d="M144.753 82.4154C121.65 71.4864 103.785 51.9333 95.0876 28.0578C86.3902 4.18219 87.573 -22.0602 98.3759 -44.8963L139.108 -131L197.181 -103.528L156.449 -17.4243C152.848 -9.81224 152.454 -1.06479 155.353 6.89373C158.252 14.8523 164.207 21.3699 171.908 25.013C179.609 28.656 188.425 29.1259 196.416 26.3194C204.408 23.5129 210.921 17.6598 214.522 10.0477L255.254 -76.056L313.327 -48.584L272.595 37.5197C261.792 60.3559 242.254 77.9151 218.279 86.3347C194.304 94.7543 167.856 93.3445 144.753 82.4154Z" fill="#1EF2FF"/>
<g opacity="0.5">
<path opacity="0.5" d="M144.753 82.4154C121.65 71.4864 103.785 51.9333 95.0876 28.0578C86.3902 4.18219 87.573 -22.0602 98.3759 -44.8963L139.108 -131L197.181 -103.528L156.449 -17.4243C152.848 -9.81224 152.454 -1.06479 155.353 6.89373C158.252 14.8523 164.207 21.3699 171.908 25.013C179.609 28.656 188.425 29.1259 196.416 26.3194C204.408 23.5129 210.921 17.6598 214.522 10.0477L255.254 -76.056L313.327 -48.584L272.595 37.5197C261.792 60.3559 242.254 77.9151 218.279 86.3347C194.304 94.7543 167.856 93.3445 144.753 82.4154Z" fill="#1EF2FF"/>
</g>
</g>
<g opacity="0.5">
<path opacity="0.5" d="M353.408 94.9579C341.677 89.4087 332.606 79.4807 328.19 67.358C323.774 55.2352 324.375 41.9108 329.86 30.3158L350.542 -13.403L380.028 0.545795L359.346 44.2646C357.518 48.1296 357.318 52.5711 358.79 56.612C360.262 60.6529 363.285 63.9623 367.195 65.812C371.106 67.6617 375.582 67.9003 379.64 66.4753C383.697 65.0503 387.004 62.0784 388.832 58.2134L409.514 14.4946L439 28.4434L418.319 72.1623C412.834 83.7572 402.913 92.6729 390.74 96.9479C378.567 101.223 365.138 100.507 353.408 94.9579Z" fill="#FFBD14"/>
</g>
<path d="M10.05 110.449C-11.1806 100.405 -27.598 82.4368 -35.5905 60.4961C-43.5831 38.5554 -42.4961 14.4397 -32.5686 -6.54578L4.86273 -85.6717L58.2294 -60.426L20.7981 18.6999C17.4889 25.6951 17.1266 33.7337 19.7908 41.0472C22.4549 48.3608 27.9274 54.3503 35.0043 57.6981C42.0811 61.0459 50.1827 61.4777 57.5267 58.8986C64.8707 56.3195 70.8556 50.9408 74.1647 43.9456L111.596 -35.1803L164.963 -9.93461L127.531 69.1913C117.604 90.1768 99.6494 106.313 77.6173 114.05C55.5853 121.788 31.2806 120.492 10.05 110.449Z" fill="#111624"/>
<g opacity="0.5">
<path opacity="0.5" d="M10.05 110.449C-11.1806 100.405 -27.598 82.4368 -35.5905 60.4961C-43.5831 38.5554 -42.4961 14.4397 -32.5686 -6.54578L4.86273 -85.6717L58.2294 -60.426L20.7981 18.6999C17.4889 25.6951 17.1266 33.7337 19.7908 41.0472C22.4549 48.3608 27.9274 54.3503 35.0043 57.6981C42.0811 61.0459 50.1827 61.4777 57.5267 58.8986C64.8707 56.3195 70.8556 50.9408 74.1647 43.9456L111.596 -35.1803L164.963 -9.93461L127.531 69.1913C117.604 90.1768 99.6494 106.313 77.6173 114.05C55.5853 121.788 31.2806 120.492 10.05 110.449Z" fill="#111624"/>
</g>
</g>
</svg>
