<svg width="320" height="172" viewBox="0 0 320 172" fill="none" xmlns="http://www.w3.org/2000/svg">
<g opacity="0.12" clip-path="url(#clip0)">
<g filter="url(#filter0_d)">
<rect width="320" height="171.626" rx="10" fill="white"/>
</g>
<path d="M44.852 144.704L42.536 140.6H41.336L44.324 145.592V149H45.344V145.592L48.32 140.6H47.156L44.852 144.704ZM51.172 142.844C49.456 142.844 48.244 144.032 48.244 145.988C48.244 147.956 49.48 149.132 51.184 149.132C52.888 149.132 54.1 147.944 54.1 145.988C54.1 144.02 52.876 142.844 51.172 142.844ZM51.16 143.768C52.24 143.768 53.092 144.572 53.092 145.964C53.092 147.404 52.3 148.196 51.184 148.196C50.116 148.196 49.252 147.392 49.252 146.012C49.252 144.572 50.044 143.768 51.16 143.768ZM60.6518 142.964H59.6798V146.156C59.6798 147.356 58.9718 148.28 57.9038 148.28C57.1478 148.28 56.5958 147.836 56.5958 146.924V142.964H55.6118V147.056C55.6118 148.364 56.3918 149.132 57.6518 149.132C58.6238 149.132 59.3078 148.676 59.6918 147.884V149H60.6518V142.964ZM62.6444 149H63.6284V145.976C63.6284 144.704 64.1324 143.828 65.4044 143.828H65.7884V142.892H65.3564C64.4444 142.892 63.8804 143.348 63.6044 144.104V142.964H62.6444V149ZM69.3101 143.828H70.3061V149H71.2901V143.828H72.5741V142.964H71.2901V142.124C71.2901 141.56 71.4821 141.332 71.9981 141.332H72.7301V140.468H71.9141C71.0381 140.468 70.3061 140.744 70.3061 142.196V142.964H69.3101V143.828ZM76.4024 142.844C74.6864 142.844 73.4744 144.032 73.4744 145.988C73.4744 147.956 74.7104 149.132 76.4144 149.132C78.1184 149.132 79.3304 147.944 79.3304 145.988C79.3304 144.02 78.1064 142.844 76.4024 142.844ZM76.3904 143.768C77.4704 143.768 78.3224 144.572 78.3224 145.964C78.3224 147.404 77.5304 148.196 76.4144 148.196C75.3464 148.196 74.4824 147.392 74.4824 146.012C74.4824 144.572 75.2744 143.768 76.3904 143.768ZM83.4103 142.844C81.6943 142.844 80.4823 144.032 80.4823 145.988C80.4823 147.956 81.7183 149.132 83.4223 149.132C85.1263 149.132 86.3383 147.944 86.3383 145.988C86.3383 144.02 85.1143 142.844 83.4103 142.844ZM83.3983 143.768C84.4783 143.768 85.3303 144.572 85.3303 145.964C85.3303 147.404 84.5383 148.196 83.4223 148.196C82.3543 148.196 81.4902 147.392 81.4902 146.012C81.4902 144.572 82.2823 143.768 83.3983 143.768ZM92.2781 140.468V143.936C91.9421 143.312 91.1621 142.844 90.1901 142.844C88.8221 142.844 87.4901 143.792 87.4901 145.964C87.4901 148.16 88.8341 149.132 90.2021 149.132C91.2821 149.132 92.0501 148.52 92.3381 147.92V149H93.2501V140.468H92.2781ZM90.3941 148.22C89.4221 148.22 88.4981 147.524 88.4981 145.952C88.4981 144.368 89.4101 143.732 90.3821 143.732C91.3301 143.732 92.2901 144.356 92.2901 145.952C92.2901 147.548 91.3301 148.22 90.3941 148.22ZM102.697 144.68C102.577 143.492 101.605 142.844 100.273 142.844C98.9892 142.844 97.9452 143.444 97.9452 144.704C97.9452 145.976 99.0252 146.204 100.333 146.444C101.209 146.6 101.869 146.72 101.869 147.38C101.869 148.016 101.269 148.304 100.513 148.304C99.7092 148.304 98.9892 147.98 98.8332 147.152H97.8012C97.9332 148.496 99.1932 149.132 100.489 149.132C101.737 149.132 102.841 148.532 102.841 147.26C102.841 145.988 101.725 145.784 100.501 145.568C99.6012 145.424 98.9172 145.304 98.9172 144.596C98.9172 144.044 99.3732 143.672 100.189 143.672C101.005 143.672 101.593 143.984 101.701 144.68H102.697ZM104.351 151.304H105.335V147.944C105.659 148.496 106.319 149 107.363 149C108.815 149 110.111 148.064 110.111 145.916C110.111 143.804 108.815 142.844 107.471 142.844C106.451 142.844 105.599 143.42 105.311 144.188V142.964H104.351V151.304ZM107.231 143.768C108.179 143.768 109.103 144.416 109.103 145.928C109.103 147.452 108.167 148.1 107.219 148.1C106.283 148.1 105.323 147.464 105.323 145.928C105.323 144.392 106.283 143.768 107.231 143.768ZM116.787 145.676C116.787 143.66 115.599 142.844 114.123 142.844C112.395 142.844 111.267 144.14 111.267 146.036C111.267 148.136 112.551 149.132 114.099 149.132C115.263 149.132 116.391 148.568 116.679 147.236H115.719C115.479 147.944 114.831 148.256 114.135 148.256C113.091 148.256 112.323 147.632 112.251 146.264H116.787V145.676ZM112.275 145.46C112.431 144.44 113.055 143.72 114.147 143.72C115.335 143.72 115.803 144.44 115.815 145.46H112.275ZM118.367 149H119.351V145.772C119.351 144.476 120.191 143.72 121.199 143.72C121.967 143.72 122.543 144.164 122.543 145.076V149H123.527V144.92C123.527 143.612 122.807 142.844 121.475 142.844C120.395 142.844 119.699 143.348 119.327 144.104V142.964H118.367V149ZM129.825 140.468V143.936C129.489 143.312 128.709 142.844 127.737 142.844C126.369 142.844 125.037 143.792 125.037 145.964C125.037 148.16 126.381 149.132 127.749 149.132C128.829 149.132 129.597 148.52 129.885 147.92V149H130.797V140.468H129.825ZM127.941 148.22C126.969 148.22 126.045 147.524 126.045 145.952C126.045 144.368 126.957 143.732 127.929 143.732C128.877 143.732 129.837 144.356 129.837 145.952C129.837 147.548 128.877 148.22 127.941 148.22ZM133.813 141.74V140.528H132.733V141.74H133.813ZM133.753 149V142.964H132.781V149H133.753ZM135.734 149H136.718V145.772C136.718 144.476 137.558 143.72 138.566 143.72C139.334 143.72 139.91 144.164 139.91 145.076V149H140.894V144.92C140.894 143.612 140.174 142.844 138.842 142.844C137.762 142.844 137.066 143.348 136.694 144.104V142.964H135.734V149ZM147.192 142.964V143.9C146.904 143.372 146.244 142.844 145.188 142.844C143.736 142.844 142.404 143.792 142.404 145.844C142.404 147.8 143.628 148.796 145.08 148.796C145.884 148.796 146.772 148.448 147.192 147.608V148.844C147.192 150.08 146.448 150.608 145.38 150.608C144.3 150.608 143.712 150.056 143.568 149.336H142.584C142.74 150.668 143.892 151.436 145.356 151.436C146.916 151.436 148.152 150.548 148.152 148.748V142.964H147.192ZM145.284 147.92C144.324 147.92 143.412 147.236 143.412 145.844C143.412 144.392 144.372 143.732 145.32 143.732C146.256 143.732 147.156 144.416 147.156 145.856C147.156 147.344 146.16 147.92 145.284 147.92ZM154.391 141.74V140.528H153.311V141.74H154.391ZM154.331 149V142.964H153.359V149H154.331ZM160.728 144.68C160.608 143.492 159.636 142.844 158.304 142.844C157.02 142.844 155.976 143.444 155.976 144.704C155.976 145.976 157.056 146.204 158.364 146.444C159.24 146.6 159.9 146.72 159.9 147.38C159.9 148.016 159.3 148.304 158.544 148.304C157.74 148.304 157.02 147.98 156.864 147.152H155.832C155.964 148.496 157.224 149.132 158.52 149.132C159.768 149.132 160.872 148.532 160.872 147.26C160.872 145.988 159.756 145.784 158.532 145.568C157.632 145.424 156.948 145.304 156.948 144.596C156.948 144.044 157.404 143.672 158.22 143.672C159.036 143.672 159.624 143.984 159.732 144.68H160.728ZM169.6 144.68C169.48 143.492 168.508 142.844 167.176 142.844C165.892 142.844 164.848 143.444 164.848 144.704C164.848 145.976 165.928 146.204 167.236 146.444C168.112 146.6 168.772 146.72 168.772 147.38C168.772 148.016 168.172 148.304 167.416 148.304C166.612 148.304 165.892 147.98 165.736 147.152H164.704C164.836 148.496 166.096 149.132 167.392 149.132C168.64 149.132 169.744 148.532 169.744 147.26C169.744 145.988 168.628 145.784 167.404 145.568C166.504 145.424 165.82 145.304 165.82 144.596C165.82 144.044 166.276 143.672 167.092 143.672C167.908 143.672 168.496 143.984 168.604 144.68H169.6ZM173.402 148.124C172.814 148.124 172.634 147.884 172.634 147.356V143.828H174.05V142.964H172.634V141.032L171.662 141.308V142.964H170.498V143.828H171.662V147.464C171.662 148.724 172.358 149 173.21 149H174.182V148.124H173.402ZM176.692 141.74V140.528H175.612V141.74H176.692ZM176.632 149V142.964H175.66V149H176.632ZM178.613 140.468V149H179.597V140.468H178.613ZM181.59 140.468V149H182.574V140.468H181.59ZM190.109 142.844C188.393 142.844 187.181 144.032 187.181 145.988C187.181 147.956 188.417 149.132 190.121 149.132C191.825 149.132 193.037 147.944 193.037 145.988C193.037 144.02 191.813 142.844 190.109 142.844ZM190.097 143.768C191.177 143.768 192.029 144.572 192.029 145.964C192.029 147.404 191.237 148.196 190.121 148.196C189.053 148.196 188.189 147.392 188.189 146.012C188.189 144.572 188.981 143.768 190.097 143.768ZM194.609 149H195.593V145.772C195.593 144.476 196.433 143.72 197.441 143.72C198.209 143.72 198.785 144.164 198.785 145.076V149H199.769V144.92C199.769 143.612 199.049 142.844 197.717 142.844C196.637 142.844 195.941 143.348 195.569 144.104V142.964H194.609V149ZM206.999 148.124C206.411 148.124 206.231 147.884 206.231 147.356V143.828H207.647V142.964H206.231V141.032L205.259 141.308V142.964H204.095V143.828H205.259V147.464C205.259 148.724 205.955 149 206.807 149H207.779V148.124H206.999ZM209.269 149H210.253V145.976C210.253 144.704 210.757 143.828 212.029 143.828H212.413V142.892H211.981C211.069 142.892 210.505 143.348 210.229 144.104V142.964H209.269V149ZM216.065 142.844C214.637 142.844 213.605 143.48 213.377 144.74H214.361C214.529 144.032 215.117 143.672 216.029 143.672C216.893 143.672 217.373 144.008 217.373 144.644C217.373 145.244 216.929 145.328 216.581 145.376L215.081 145.58C214.109 145.724 213.233 146.168 213.233 147.368C213.233 148.544 214.097 149.132 215.201 149.132C216.209 149.132 217.025 148.628 217.457 147.848V149H218.357V144.788C218.357 143.468 217.529 142.844 216.065 142.844ZM215.417 148.268C214.757 148.268 214.229 147.98 214.229 147.308C214.229 146.504 214.961 146.348 215.441 146.276L216.341 146.156C216.893 146.072 217.157 146 217.373 145.892V146.396C217.373 147.572 216.425 148.268 215.417 148.268ZM224.377 146.876C224.245 147.764 223.633 148.22 222.757 148.22C221.461 148.22 220.885 147.236 220.885 145.976C220.885 144.74 221.461 143.756 222.781 143.756C223.681 143.756 224.293 144.176 224.365 145.016H225.337C225.241 143.624 224.209 142.844 222.769 142.844C220.861 142.844 219.877 144.284 219.877 146.024C219.877 147.716 220.801 149.132 222.709 149.132C224.173 149.132 225.217 148.292 225.349 146.876H224.377ZM226.918 149H227.902V147.248L228.982 146.132L231.082 149H232.294L229.654 145.448L232.09 142.964H230.818L227.902 146.072V140.468H226.918V149Z" fill="#9EA6BE"/>
<rect x="16.7493" y="62.4894" width="289.146" height="33.445" rx="16.7225" fill="#F9F9FB"/>
<rect x="16.7493" y="62.4894" width="137.521" height="33.445" rx="16.7225" fill="#016938"/>
<path d="M41.0238 81.66C41.0238 80.136 39.7398 79.764 38.5038 79.452V76.476C39.2238 76.596 39.8238 77.016 39.9078 77.916H40.9158C40.8558 76.476 39.7878 75.768 38.5038 75.636V74.388H37.8318V75.612C36.3318 75.684 35.2758 76.5 35.2758 77.94C35.2758 79.536 36.5838 79.908 37.8318 80.22V83.124C36.9078 82.992 36.1758 82.404 36.0798 81.228H35.0718C35.1198 82.776 36.2598 83.82 37.8318 83.964V85.524H38.5038V83.976C39.9078 83.892 41.0238 83.088 41.0238 81.66ZM36.2478 77.868C36.2478 76.968 36.8838 76.5 37.8318 76.44V79.272C36.9558 79.032 36.2478 78.708 36.2478 77.868ZM38.5038 80.4C39.3558 80.628 40.0398 80.928 40.0398 81.744C40.0398 82.56 39.4398 83.064 38.5038 83.136V80.4ZM47.0953 75.744H45.9073L41.9353 81.18V82.092H46.1353V84H47.0953V82.104H48.4273V81.204H47.0953V75.744ZM42.9433 81.204L46.1353 76.836V81.204H42.9433ZM50.5449 75.744L49.8609 80.076H50.8449C51.2409 79.692 51.7809 79.452 52.4049 79.452C53.4849 79.452 54.2169 80.232 54.2169 81.336C54.2169 82.464 53.5569 83.244 52.4169 83.244C51.3969 83.244 50.6289 82.644 50.5449 81.432H49.5129C49.6089 83.184 50.8569 84.132 52.4409 84.132C54.1809 84.132 55.2249 82.872 55.2249 81.252C55.2249 79.716 54.1809 78.6 52.6449 78.6C52.1169 78.6 51.4089 78.732 50.8449 79.224L51.2529 76.668H54.8289V75.744H50.5449ZM59.3173 75.6C57.4213 75.6 56.4373 76.944 56.4373 79.872C56.4373 82.788 57.4213 84.132 59.3173 84.132C61.2133 84.132 62.1853 82.788 62.1853 79.86C62.1853 76.944 61.2133 75.6 59.3173 75.6ZM59.3173 76.488C60.7213 76.488 61.1773 77.748 61.1773 79.86C61.1773 82.068 60.7213 83.244 59.3173 83.244C57.9133 83.244 57.4453 81.984 57.4453 79.872C57.4453 77.664 57.9133 76.488 59.3173 76.488Z" fill="white"/>
<path d="M261.105 81.66C261.105 80.136 259.821 79.764 258.585 79.452V76.476C259.305 76.596 259.905 77.016 259.989 77.916H260.997C260.937 76.476 259.869 75.768 258.585 75.636V74.388H257.913V75.612C256.413 75.684 255.357 76.5 255.357 77.94C255.357 79.536 256.665 79.908 257.913 80.22V83.124C256.989 82.992 256.257 82.404 256.161 81.228H255.153C255.201 82.776 256.341 83.82 257.913 83.964V85.524H258.585V83.976C259.989 83.892 261.105 83.088 261.105 81.66ZM256.329 77.868C256.329 76.968 256.965 76.5 257.913 76.44V79.272C257.037 79.032 256.329 78.708 256.329 77.868ZM258.585 80.4C259.437 80.628 260.121 80.928 260.121 81.744C260.121 82.56 259.521 83.064 258.585 83.136V80.4ZM262.352 81.936C262.532 83.472 263.708 84.132 265.064 84.132C266.408 84.132 268.244 83.316 268.244 79.836C268.244 76.632 266.636 75.6 265.064 75.6C263.312 75.6 262.208 76.944 262.208 78.432C262.208 79.848 263.144 81.084 264.824 81.084C265.832 81.084 266.84 80.64 267.284 79.524C267.296 79.68 267.296 79.824 267.296 79.968C267.296 82.272 266.324 83.28 265.088 83.28C264.188 83.28 263.492 82.788 263.36 81.936H262.352ZM265.004 80.208C263.828 80.208 263.204 79.356 263.204 78.384C263.204 77.412 263.876 76.464 265.112 76.464C266.288 76.464 266.936 77.376 266.936 78.336C266.936 79.32 266.192 80.208 265.004 80.208ZM272.344 75.6C270.448 75.6 269.464 76.944 269.464 79.872C269.464 82.788 270.448 84.132 272.344 84.132C274.24 84.132 275.212 82.788 275.212 79.86C275.212 76.944 274.24 75.6 272.344 75.6ZM272.344 76.488C273.748 76.488 274.204 77.748 274.204 79.86C274.204 82.068 273.748 83.244 272.344 83.244C270.94 83.244 270.472 81.984 270.472 79.872C270.472 77.664 270.94 76.488 272.344 76.488ZM279.363 75.6C277.467 75.6 276.483 76.944 276.483 79.872C276.483 82.788 277.467 84.132 279.363 84.132C281.259 84.132 282.231 82.788 282.231 79.86C282.231 76.944 281.259 75.6 279.363 75.6ZM279.363 76.488C280.767 76.488 281.223 77.748 281.223 79.86C281.223 82.068 280.767 83.244 279.363 83.244C277.959 83.244 277.491 81.984 277.491 79.872C277.491 77.664 277.959 76.488 279.363 76.488Z" fill="#7D8CBA"/>
<path d="M233.168 55.8883V101.655" stroke="#016938" stroke-width="2" stroke-linecap="square"/>
<path d="M40.0597 38.3936C40.0597 38.7887 39.8994 39.146 39.6403 39.4047C39.3808 39.6634 39.0229 39.8234 38.6276 39.8234H22.0578C21.2672 39.8234 20.6257 39.1834 20.6257 38.3936C20.6257 38.182 20.6715 37.9815 20.7539 37.8011C20.8256 37.6442 20.9244 37.5029 21.045 37.3824C21.3045 37.1237 21.6625 36.9637 22.0578 36.9637H38.6276C39.2068 36.9637 39.7058 37.3068 39.9315 37.8011C40.0138 37.9815 40.0597 38.182 40.0597 38.3936Z" fill="#884D00"/>
<path d="M39.9315 37.8012C39.8598 37.9576 39.7606 38.0994 39.6404 38.2194C39.3809 38.4781 39.0229 38.6381 38.6276 38.6381H22.0578C21.4791 38.6381 20.9801 38.295 20.7539 37.8012C20.8256 37.6443 20.9244 37.503 21.045 37.3825C21.3046 37.1239 21.6625 36.9639 22.0578 36.9639H38.6276C39.2068 36.9638 39.7058 37.307 39.9315 37.8012Z" fill="#AA6100"/>
<path d="M41.2915 40.9776C41.2915 42.8199 40.4372 44.1887 39.0563 45.0968C37.675 46.0052 35.767 46.4528 33.6596 46.4528H27.0258C22.811 46.4528 19.394 44.6621 19.394 40.9776C19.394 40.7723 19.4451 40.5776 19.5377 40.4025C19.6161 40.2531 19.7243 40.1185 19.8556 40.0038C20.1405 39.7545 20.5349 39.6002 20.9698 39.6002H39.7156C40.3509 39.6002 40.8984 39.9291 41.1477 40.4025C41.2403 40.5776 41.2915 40.7723 41.2915 40.9776Z" fill="#FFA733"/>
<path d="M41.1477 40.4025C40.8503 41.6292 40.1051 42.5847 39.0563 43.2745C37.675 44.1829 35.767 44.6305 33.6596 44.6305H27.0258C23.3176 44.6305 20.2273 43.2447 19.5378 40.4025C19.6161 40.2531 19.7243 40.1185 19.8556 40.0038C20.1405 39.7545 20.5349 39.6002 20.9699 39.6002H39.7156C40.3509 39.6002 40.8984 39.9291 41.1477 40.4025Z" fill="#FFB655"/>
<path d="M36.4324 36.3638L32.7278 40.0625C32.6347 40.1549 32.5354 40.2367 32.4304 40.3074C31.646 40.8376 30.5714 40.7563 29.8765 40.0625L26.1718 36.3638H36.4324Z" fill="#EEBF00"/>
<path d="M36.4324 36.3638L32.7277 40.0625C32.6347 40.1549 32.5354 40.2367 32.4304 40.3074C32.1477 40.2114 31.8824 40.0509 31.6571 39.8256L28.1897 36.3638H36.4324Z" fill="#FFD422"/>
<path d="M40.8757 36.8797C40.8757 37.0735 40.8436 37.2717 40.7742 37.4651C40.5022 38.2229 39.7739 38.5171 39.2063 38.0984L38.5257 37.5966C38.0507 37.246 37.4448 37.3895 37.1011 37.9344L37.0722 37.9802C36.7423 38.5037 36.1672 38.6593 35.6975 38.3526L34.1733 37.3575C33.8216 37.1282 33.4 37.1531 33.0671 37.4237L31.8456 38.4157C31.4948 38.7006 31.0478 38.7126 30.6877 38.4464L29.2943 37.4153C28.9382 37.1517 28.4966 37.1601 28.1471 37.4375L26.8785 38.4433C26.5379 38.7131 26.1096 38.7287 25.7575 38.4847L24.1149 37.3451C23.7917 37.1211 23.4022 37.1148 23.0745 37.3286L21.5423 38.3291C20.522 38.4602 20.0256 37.7122 20.0256 37.7122C19.7813 37.2882 19.7568 36.7855 19.889 36.3637C20.0461 35.8598 20.4268 35.4713 20.9218 35.4713H39.7642C40.2494 35.4713 40.6371 35.854 40.7965 36.3615C40.8481 36.5242 40.8757 36.6998 40.8757 36.8797Z" fill="#6DC82A"/>
<path d="M40.7965 36.3616C40.7898 36.3838 40.7822 36.4056 40.7742 36.4278C40.5022 37.1861 39.774 37.4803 39.2064 37.0616L38.5257 36.5594C38.0507 36.2092 37.4449 36.3527 37.1012 36.8972L37.0722 36.9434C36.7424 37.4669 36.1672 37.6225 35.6976 37.3158L34.1733 36.3207C33.8216 36.0909 33.4001 36.1163 33.0671 36.3869L31.8456 37.3789C31.4948 37.6638 31.0479 37.6754 30.6877 37.4092L29.2944 36.3781C28.9382 36.1145 28.4967 36.1234 28.1472 36.4003L26.8785 37.4065C26.5379 37.6758 26.1097 37.6918 25.7575 37.4478L24.1149 36.3082C23.7917 36.0838 23.4022 36.0776 23.0745 36.2918L21.5423 37.2918C20.522 37.4234 20.0257 36.6749 20.0257 36.6749C19.9682 36.5749 19.9228 36.4705 19.889 36.3638C20.0461 35.8598 20.4268 35.4713 20.9218 35.4713H39.7642C40.2493 35.4714 40.6371 35.854 40.7965 36.3616Z" fill="#7ED63E"/>
<path d="M40.4955 34.5566C40.4986 34.7046 40.479 34.8473 40.4408 34.982C40.2685 35.5811 39.7156 36.0193 39.0603 36.0193C36.4873 36.0193 29.634 35.9615 28.6004 35.9958C28.5772 35.9966 28.5541 35.9975 28.5314 35.998C27.2262 36.0473 26.9288 36.2562 26.9288 36.9509V39.4927C26.9288 39.6233 26.8758 39.742 26.7899 39.8278C26.704 39.9136 26.5856 39.9664 26.4547 39.9664C26.1925 39.9664 25.9801 40.1784 25.9801 40.4402V41.5474C25.9801 41.6598 25.9668 41.7687 25.941 41.8736C25.7945 42.479 25.2474 42.9283 24.5903 42.9283H24.5552C23.8082 42.9283 23.2036 42.3225 23.2059 41.5767L23.2121 39.5727C23.2125 39.4189 23.2753 39.2793 23.3764 39.1789C23.4779 39.078 23.6172 39.0158 23.7717 39.0158C24.0807 39.0158 24.3313 38.7656 24.3313 38.4571V36.9509C24.3313 36.4362 23.9137 36.0193 23.3982 36.0193H21.6523C20.8666 36.0193 20.2055 35.4002 20.1894 34.6158C20.1734 33.8109 20.8225 33.1531 21.6251 33.1531H39.0318C39.818 33.1531 40.4799 33.7722 40.4955 34.5566Z" fill="#FF3501"/>
<path d="M40.4955 34.5566C40.4986 34.7046 40.479 34.8473 40.4407 34.982C37.7168 34.9793 31.2081 34.9255 30.2029 34.9584C28.8389 35.0033 28.5314 35.2073 28.5314 35.914V35.998C27.2261 36.0473 26.9288 36.2562 26.9288 36.9509V39.4927C26.9288 39.6233 26.8758 39.742 26.7899 39.8278C26.704 39.9136 26.5856 39.9664 26.4547 39.9664C26.1925 39.9664 25.9801 40.1784 25.9801 40.4402V41.5474C25.9801 41.6598 25.9668 41.7687 25.9409 41.8736C25.2972 41.77 24.8062 41.2114 24.8084 40.5393L24.8147 38.5358C24.8151 38.3815 24.8779 38.2424 24.979 38.142C25.0804 38.0411 25.2198 37.9789 25.3743 37.9789C25.6832 37.9789 25.9338 37.7286 25.9338 37.4202V35.9139C25.9338 35.3993 25.5163 34.9824 25.0008 34.9824H23.2548C22.4691 34.9824 21.808 34.3633 21.792 33.5788C21.7889 33.4308 21.8085 33.2882 21.8472 33.1531H39.0318C39.8179 33.1531 40.4799 33.7722 40.4955 34.5566Z" fill="#FF5023"/>
<path d="M32.2832 31.6962L29.1069 34.8687C28.7886 35.1864 28.4133 35.4127 28.0136 35.5464C27.028 35.8789 25.8955 35.6527 25.1111 34.8687L21.9336 31.6962H32.2832Z" fill="#EEBF00"/>
<path d="M32.2832 31.6962L29.1069 34.8687C28.7886 35.1864 28.4133 35.4127 28.0136 35.5464C27.6142 35.4127 27.239 35.1864 26.9211 34.8687L23.7436 31.6962H32.2832Z" fill="#FFD422"/>
<path d="M41.2915 32.1424C41.2915 32.166 41.2906 32.1891 41.2892 32.2122C41.2719 32.5104 41.1437 32.7793 40.9451 32.9775C40.731 33.1913 40.4354 33.3233 40.1087 33.3233H20.5768C19.9237 33.3233 19.394 32.7944 19.394 32.1424C19.394 30.7273 20.051 29.6619 21.0433 28.8606C21.8486 28.2099 22.8751 27.733 23.9497 27.3832C26.9564 26.4059 30.3427 26.4241 30.3427 26.4241C30.3427 26.4241 41.2915 26.365 41.2915 32.1424Z" fill="#FFA733"/>
<path d="M41.2915 32.1424C41.2915 32.166 41.2906 32.1891 41.2892 32.2122H22.9806C22.3276 32.2122 21.7978 31.6833 21.7978 31.0313C21.7978 29.6161 22.4548 28.5508 23.4471 27.7495C23.6065 27.6206 23.7743 27.4988 23.9497 27.3832C26.9564 26.4059 30.3427 26.4241 30.3427 26.4241C30.3427 26.4241 41.2915 26.365 41.2915 32.1424Z" fill="#FFB655"/>
<path d="M36.2277 28.49C36.4175 28.6906 36.4085 29.0069 36.2076 29.1965C36.0067 29.386 35.6899 29.3771 35.5001 29.1765C35.3102 28.9759 34.9608 28.2809 35.1617 28.0913C35.3626 27.9017 36.0378 28.2894 36.2277 28.49Z" fill="#FFF5CC"/>
<path d="M33.5745 30.9598C33.6736 31.2175 33.5448 31.5066 33.2867 31.6055C33.0286 31.7045 32.7391 31.5758 32.64 31.3181C32.5409 31.0605 32.4827 30.285 32.7407 30.1861C32.9988 30.0872 33.4754 30.7022 33.5745 30.9598Z" fill="#FFF5CC"/>
<path d="M30.8432 28.9044C30.8432 29.1804 30.6191 29.4041 30.3427 29.4041C30.0663 29.4041 29.8422 29.1804 29.8422 28.9044C29.8422 28.6284 30.0663 27.8837 30.3427 27.8837C30.6192 27.8836 30.8432 28.6284 30.8432 28.9044Z" fill="#FFF5CC"/>
<path d="M28.0911 31.2729C28.022 31.5401 27.749 31.7008 27.4813 31.6318C27.2137 31.5628 27.0527 31.2902 27.1219 31.023C27.191 30.7558 27.5945 30.0906 27.8622 30.1597C28.1298 30.2287 28.1602 31.0058 28.0911 31.2729Z" fill="#FFF5CC"/>
<path d="M25.3375 29.0962C25.2169 29.3445 24.9176 29.4484 24.6688 29.328C24.42 29.2077 24.316 28.9088 24.4365 28.6604C24.5571 28.4121 25.0839 27.8393 25.3328 27.9597C25.5815 28.08 25.458 28.8478 25.3375 29.0962Z" fill="#FFF5CC"/>
<path d="M58.3821 38.052V30.6H57.3621V39H62.5701V38.052H58.3821ZM68.9369 32.964H67.9649V36.156C67.9649 37.356 67.2569 38.28 66.1889 38.28C65.4329 38.28 64.8809 37.836 64.8809 36.924V32.964H63.8969V37.056C63.8969 38.364 64.6769 39.132 65.9369 39.132C66.9089 39.132 67.5929 38.676 67.9769 37.884V39H68.9369V32.964ZM70.9296 39H71.9136V35.772C71.9136 34.476 72.7536 33.72 73.7616 33.72C74.5296 33.72 75.1056 34.164 75.1056 35.076V39H76.0896V34.92C76.0896 33.612 75.3696 32.844 74.0376 32.844C72.9576 32.844 72.2616 33.348 71.8896 34.104V32.964H70.9296V39ZM82.0994 36.876C81.9674 37.764 81.3554 38.22 80.4794 38.22C79.1834 38.22 78.6074 37.236 78.6074 35.976C78.6074 34.74 79.1834 33.756 80.5034 33.756C81.4034 33.756 82.0154 34.176 82.0874 35.016H83.0594C82.9634 33.624 81.9314 32.844 80.4914 32.844C78.5834 32.844 77.5994 34.284 77.5994 36.024C77.5994 37.716 78.5234 39.132 80.4314 39.132C81.8954 39.132 82.9394 38.292 83.0714 36.876H82.0994ZM84.6405 39H85.6245V35.772C85.6245 34.476 86.4645 33.72 87.4725 33.72C88.2405 33.72 88.8165 34.164 88.8165 35.076V39H89.8005V34.92C89.8005 33.612 89.0805 32.844 87.7485 32.844C86.6805 32.844 85.9965 33.336 85.6245 34.08V30.468H84.6405V39ZM100.712 37.452C101.084 36.924 101.36 36.18 101.36 35.16V34.944H100.472V35.136C100.472 35.904 100.364 36.432 100.112 36.828L98.0239 34.764C99.0919 34.248 99.8839 33.636 99.8839 32.496C99.8839 31.272 98.9239 30.6 97.7479 30.6C96.5719 30.6 95.4919 31.272 95.4919 32.544C95.4919 33.336 95.9119 33.948 96.6439 34.608C95.4079 35.064 94.7599 35.856 94.7599 36.9C94.7599 38.304 95.8999 39.132 97.4599 39.132C98.3959 39.132 99.4639 38.844 100.16 38.112L101.06 39H102.308L100.712 37.452ZM97.4479 34.248C96.8239 33.696 96.4279 33.192 96.4279 32.58C96.4279 31.824 97.0279 31.416 97.6999 31.416C98.3959 31.416 98.9599 31.812 98.9599 32.568C98.9599 33.288 98.4439 33.912 97.4479 34.248ZM99.5719 37.512C99.1399 38.016 98.4079 38.268 97.6519 38.268C96.6439 38.268 95.7319 37.824 95.7319 36.792C95.7319 36.12 96.1039 35.52 97.1599 35.124L99.5719 37.512ZM107.038 39H109.534C112.414 39 113.782 36.876 113.782 34.644C113.782 32.448 112.462 30.6 109.75 30.6H107.038V39ZM109.702 31.536C111.814 31.536 112.738 32.94 112.738 34.68C112.738 36.468 111.766 38.052 109.558 38.052H108.058V31.536H109.702ZM116.493 31.74V30.528H115.413V31.74H116.493ZM116.433 39V32.964H115.461V39H116.433ZM118.414 39H119.398V35.772C119.398 34.476 120.238 33.72 121.246 33.72C122.014 33.72 122.59 34.164 122.59 35.076V39H123.574V34.92C123.574 33.612 122.854 32.844 121.522 32.844C120.442 32.844 119.746 33.348 119.374 34.104V32.964H118.414V39ZM125.504 39H126.488V35.772C126.488 34.476 127.328 33.72 128.336 33.72C129.104 33.72 129.68 34.164 129.68 35.076V39H130.664V34.92C130.664 33.612 129.944 32.844 128.612 32.844C127.532 32.844 126.836 33.348 126.464 34.104V32.964H125.504V39ZM137.694 35.676C137.694 33.66 136.506 32.844 135.03 32.844C133.302 32.844 132.174 34.14 132.174 36.036C132.174 38.136 133.458 39.132 135.006 39.132C136.17 39.132 137.298 38.568 137.586 37.236H136.626C136.386 37.944 135.738 38.256 135.042 38.256C133.998 38.256 133.23 37.632 133.158 36.264H137.694V35.676ZM133.182 35.46C133.338 34.44 133.962 33.72 135.054 33.72C136.242 33.72 136.71 34.44 136.722 35.46H133.182ZM139.273 39H140.257V35.976C140.257 34.704 140.761 33.828 142.033 33.828H142.417V32.892H141.985C141.073 32.892 140.509 33.348 140.233 34.104V32.964H139.273V39Z" fill="#26352E"/>
<path d="M252.744 33.66C252.744 32.136 251.46 31.764 250.224 31.452V28.476C250.944 28.596 251.544 29.016 251.628 29.916H252.636C252.576 28.476 251.508 27.768 250.224 27.636V26.388H249.552V27.612C248.052 27.684 246.996 28.5 246.996 29.94C246.996 31.536 248.304 31.908 249.552 32.22V35.124C248.628 34.992 247.896 34.404 247.8 33.228H246.792C246.84 34.776 247.98 35.82 249.552 35.964V37.524H250.224V35.976C251.628 35.892 252.744 35.088 252.744 33.66ZM247.968 29.868C247.968 28.968 248.604 28.5 249.552 28.44V31.272C248.676 31.032 247.968 30.708 247.968 29.868ZM250.224 32.4C251.076 32.628 251.76 32.928 251.76 33.744C251.76 34.56 251.16 35.064 250.224 35.136V32.4ZM255 27.744L254.316 32.076H255.3C255.696 31.692 256.236 31.452 256.86 31.452C257.94 31.452 258.672 32.232 258.672 33.336C258.672 34.464 258.012 35.244 256.872 35.244C255.852 35.244 255.084 34.644 255 33.432H253.968C254.064 35.184 255.312 36.132 256.896 36.132C258.636 36.132 259.68 34.872 259.68 33.252C259.68 31.716 258.636 30.6 257.1 30.6C256.572 30.6 255.864 30.732 255.3 31.224L255.708 28.668H259.284V27.744H255ZM266.688 36V35.076H262.188L264.072 33.432C265.464 32.22 266.436 31.32 266.436 29.964C266.436 28.476 265.32 27.6 263.844 27.6C262.32 27.6 260.916 28.524 260.832 30.396H261.828C261.912 29.064 262.824 28.512 263.76 28.512C264.756 28.512 265.428 29.112 265.428 30.06C265.428 31.008 264.732 31.668 263.7 32.604L260.916 35.088V36H266.688ZM268.332 37.032L271.956 26.712H271.056L267.432 37.032H268.332ZM277.011 27.468V30.936C276.675 30.312 275.895 29.844 274.923 29.844C273.555 29.844 272.223 30.792 272.223 32.964C272.223 35.16 273.567 36.132 274.935 36.132C276.015 36.132 276.783 35.52 277.071 34.92V36H277.983V27.468H277.011ZM275.127 35.22C274.155 35.22 273.231 34.524 273.231 32.952C273.231 31.368 274.143 30.732 275.115 30.732C276.063 30.732 277.023 31.356 277.023 32.952C277.023 34.548 276.063 35.22 275.127 35.22ZM282.415 29.844C280.987 29.844 279.955 30.48 279.727 31.74H280.711C280.879 31.032 281.467 30.672 282.379 30.672C283.243 30.672 283.723 31.008 283.723 31.644C283.723 32.244 283.279 32.328 282.931 32.376L281.431 32.58C280.459 32.724 279.583 33.168 279.583 34.368C279.583 35.544 280.447 36.132 281.551 36.132C282.559 36.132 283.375 35.628 283.807 34.848V36H284.707V31.788C284.707 30.468 283.879 29.844 282.415 29.844ZM281.767 35.268C281.107 35.268 280.579 34.98 280.579 34.308C280.579 33.504 281.311 33.348 281.791 33.276L282.691 33.156C283.243 33.072 283.507 33 283.723 32.892V33.396C283.723 34.572 282.775 35.268 281.767 35.268ZM288.855 34.812L286.923 29.964H285.867L288.351 35.868L288.171 36.324C287.967 36.816 287.679 37.104 286.959 37.104H286.383V37.968H286.995C288.147 37.968 288.663 37.56 289.059 36.576L291.663 29.964H290.667L288.855 34.812Z" fill="#26352E"/>
<ellipse cx="25.5647" cy="141.701" rx="7.93388" ry="7.92118" fill="#016938"/>
<path d="M29.0909 139.061L24.2424 143.902L22.0386 141.701" stroke="white" stroke-linecap="round" stroke-linejoin="round"/>
<g clip-path="url(#clip1)">
<path d="M105.104 21H220V183H105.104V21Z" fill="#1EC572"/>
<path d="M-218.5 9.26889C-218.5 6.40467 -216.099 4.12584 -213.238 4.27574L105.896 21V183L-213.762 166.248C-216.418 166.109 -218.5 163.915 -218.5 161.255V9.26889Z" fill="#F98980"/>
<path d="M36.0668 92.97L33.8868 87H32.9568L35.6468 94H36.4668L39.1568 87H38.2568L36.0668 92.97ZM41.1146 87.95V86.94H40.2146V87.95H41.1146ZM41.0646 94V88.97H40.2546V94H41.0646ZM46.9657 91.23C46.9657 89.55 45.9757 88.87 44.7457 88.87C43.3057 88.87 42.3657 89.95 42.3657 91.53C42.3657 93.28 43.4357 94.11 44.7257 94.11C45.6957 94.11 46.6357 93.64 46.8757 92.53H46.0757C45.8757 93.12 45.3357 93.38 44.7557 93.38C43.8857 93.38 43.2457 92.86 43.1857 91.72H46.9657V91.23ZM43.2057 91.05C43.3357 90.2 43.8557 89.6 44.7657 89.6C45.7557 89.6 46.1457 90.2 46.1557 91.05H43.2057ZM53.2021 93L51.9021 88.97H51.0821L49.8221 93L48.5321 88.97H47.6721L49.3821 94H50.2121L51.4821 90.16L52.7621 94H53.6021L55.3021 88.97H54.4521L53.2021 93ZM17.6942 111.27C17.2042 111.27 17.0542 111.07 17.0542 110.63V107.69H18.2342V106.97H17.0542V105.36L16.2442 105.59V106.97H15.2742V107.69H16.2442V110.72C16.2442 111.77 16.8242 112 17.5342 112H18.3442V111.27H17.6942ZM19.5859 112H20.4059V109.48C20.4059 108.42 20.8259 107.69 21.8859 107.69H22.2059V106.91H21.8459C21.0859 106.91 20.6159 107.29 20.3859 107.92V106.97H19.5859V112ZM25.2487 106.87C24.0587 106.87 23.1987 107.4 23.0087 108.45H23.8287C23.9687 107.86 24.4587 107.56 25.2187 107.56C25.9387 107.56 26.3387 107.84 26.3387 108.37C26.3387 108.87 25.9687 108.94 25.6787 108.98L24.4287 109.15C23.6187 109.27 22.8887 109.64 22.8887 110.64C22.8887 111.62 23.6087 112.11 24.5287 112.11C25.3687 112.11 26.0487 111.69 26.4087 111.04V112H27.1587V108.49C27.1587 107.39 26.4687 106.87 25.2487 106.87ZM24.7087 111.39C24.1587 111.39 23.7187 111.15 23.7187 110.59C23.7187 109.92 24.3287 109.79 24.7287 109.73L25.4787 109.63C25.9387 109.56 26.1587 109.5 26.3387 109.41V109.83C26.3387 110.81 25.5487 111.39 24.7087 111.39ZM28.7753 112H29.5953V109.31C29.5953 108.23 30.2953 107.6 31.1353 107.6C31.7753 107.6 32.2553 107.97 32.2553 108.73V112H33.0753V108.6C33.0753 107.51 32.4753 106.87 31.3653 106.87C30.4653 106.87 29.8853 107.29 29.5753 107.92V106.97H28.7753V112ZM38.3635 108.4C38.2635 107.41 37.4535 106.87 36.3435 106.87C35.2735 106.87 34.4035 107.37 34.4035 108.42C34.4035 109.48 35.3035 109.67 36.3935 109.87C37.1235 110 37.6735 110.1 37.6735 110.65C37.6735 111.18 37.1735 111.42 36.5435 111.42C35.8735 111.42 35.2735 111.15 35.1435 110.46H34.2835C34.3935 111.58 35.4435 112.11 36.5235 112.11C37.5635 112.11 38.4835 111.61 38.4835 110.55C38.4835 109.49 37.5535 109.32 36.5335 109.14C35.7835 109.02 35.2135 108.92 35.2135 108.33C35.2135 107.87 35.5935 107.56 36.2735 107.56C36.9535 107.56 37.4435 107.82 37.5335 108.4H38.3635ZM41.7721 106.87C40.5821 106.87 39.7221 107.4 39.5321 108.45H40.3521C40.4921 107.86 40.9821 107.56 41.7421 107.56C42.4621 107.56 42.8621 107.84 42.8621 108.37C42.8621 108.87 42.4921 108.94 42.2021 108.98L40.9521 109.15C40.1421 109.27 39.4121 109.64 39.4121 110.64C39.4121 111.62 40.1321 112.11 41.0521 112.11C41.8921 112.11 42.5721 111.69 42.9321 111.04V112H43.6821V108.49C43.6821 107.39 42.9921 106.87 41.7721 106.87ZM41.2321 111.39C40.6821 111.39 40.2421 111.15 40.2421 110.59C40.2421 109.92 40.8521 109.79 41.2521 109.73L42.0021 109.63C42.4621 109.56 42.6821 109.5 42.8621 109.41V109.83C42.8621 110.81 42.0721 111.39 41.2321 111.39ZM48.6988 110.23C48.5888 110.97 48.0788 111.35 47.3488 111.35C46.2688 111.35 45.7887 110.53 45.7887 109.48C45.7887 108.45 46.2688 107.63 47.3688 107.63C48.1188 107.63 48.6288 107.98 48.6888 108.68H49.4988C49.4188 107.52 48.5588 106.87 47.3588 106.87C45.7688 106.87 44.9488 108.07 44.9488 109.52C44.9488 110.93 45.7188 112.11 47.3088 112.11C48.5288 112.11 49.3988 111.41 49.5088 110.23H48.6988ZM52.6063 111.27C52.1163 111.27 51.9663 111.07 51.9663 110.63V107.69H53.1463V106.97H51.9663V105.36L51.1563 105.59V106.97H50.1863V107.69H51.1563V110.72C51.1563 111.77 51.7363 112 52.4463 112H53.2563V111.27H52.6063ZM55.348 105.95V104.94H54.448V105.95H55.348ZM55.298 112V106.97H54.488V112H55.298ZM59.0391 106.87C57.6091 106.87 56.5991 107.86 56.5991 109.49C56.5991 111.13 57.6291 112.11 59.0491 112.11C60.4691 112.11 61.4791 111.12 61.4791 109.49C61.4791 107.85 60.4591 106.87 59.0391 106.87ZM59.0291 107.64C59.9291 107.64 60.6391 108.31 60.6391 109.47C60.6391 110.67 59.9791 111.33 59.0491 111.33C58.1591 111.33 57.4391 110.66 57.4391 109.51C57.4391 108.31 58.0991 107.64 59.0291 107.64ZM62.789 112H63.609V109.31C63.609 108.23 64.309 107.6 65.149 107.6C65.789 107.6 66.269 107.97 66.269 108.73V112H67.089V108.6C67.089 107.51 66.489 106.87 65.379 106.87C64.479 106.87 63.899 107.29 63.589 107.92V106.97H62.789V112ZM72.3772 108.4C72.2772 107.41 71.4672 106.87 70.3572 106.87C69.2872 106.87 68.4172 107.37 68.4172 108.42C68.4172 109.48 69.3172 109.67 70.4072 109.87C71.1372 110 71.6872 110.1 71.6872 110.65C71.6872 111.18 71.1872 111.42 70.5572 111.42C69.8872 111.42 69.2872 111.15 69.1572 110.46H68.2972C68.4072 111.58 69.4572 112.11 70.5372 112.11C71.5772 112.11 72.4972 111.61 72.4972 110.55C72.4972 109.49 71.5672 109.32 70.5472 109.14C69.7972 109.02 69.2272 108.92 69.2272 108.33C69.2272 107.87 69.6072 107.56 70.2872 107.56C70.9672 107.56 71.4572 107.82 71.5472 108.4H72.3772Z" fill="black"/>
<path d="M154.294 94H158.904V93.21H155.144V90.86H158.384V90.07H155.144V87.78H158.724V87H154.294V94ZM163.86 86.89V89.78C163.58 89.26 162.93 88.87 162.12 88.87C160.98 88.87 159.87 89.66 159.87 91.47C159.87 93.3 160.99 94.11 162.13 94.11C163.03 94.11 163.67 93.6 163.91 93.1V94H164.67V86.89H163.86ZM162.29 93.35C161.48 93.35 160.71 92.77 160.71 91.46C160.71 90.14 161.47 89.61 162.28 89.61C163.07 89.61 163.87 90.13 163.87 91.46C163.87 92.79 163.07 93.35 162.29 93.35ZM167.183 87.95V86.94H166.283V87.95H167.183ZM167.133 94V88.97H166.323V94H167.133ZM170.574 93.27C170.084 93.27 169.934 93.07 169.934 92.63V89.69H171.114V88.97H169.934V87.36L169.124 87.59V88.97H168.154V89.69H169.124V92.72C169.124 93.77 169.704 94 170.414 94H171.224V93.27H170.574ZM146.492 112H149.432C150.892 112 151.672 111.02 151.672 110.01C151.672 109.28 151.242 108.53 150.322 108.27C151.042 108 151.382 107.33 151.382 106.66C151.382 105.83 150.802 105 149.572 105H146.492V112ZM149.362 105.78C150.142 105.78 150.532 106.27 150.532 106.82C150.532 107.4 150.082 107.96 149.202 107.96H147.342V105.78H149.362ZM149.442 108.68C150.332 108.68 150.812 109.28 150.812 109.92C150.812 110.57 150.342 111.21 149.382 111.21H147.342V108.68H149.442ZM157.182 106.97H156.372V109.63C156.372 110.63 155.782 111.4 154.892 111.4C154.262 111.4 153.802 111.03 153.802 110.27V106.97H152.982V110.38C152.982 111.47 153.632 112.11 154.682 112.11C155.492 112.11 156.062 111.73 156.382 111.07V112H157.182V106.97ZM162.483 104.89V107.78C162.203 107.26 161.553 106.87 160.743 106.87C159.603 106.87 158.493 107.66 158.493 109.47C158.493 111.3 159.613 112.11 160.753 112.11C161.653 112.11 162.293 111.6 162.533 111.1V112H163.293V104.89H162.483ZM160.913 111.35C160.103 111.35 159.333 110.77 159.333 109.46C159.333 108.14 160.093 107.61 160.903 107.61C161.693 107.61 162.493 108.13 162.493 109.46C162.493 110.79 161.693 111.35 160.913 111.35ZM168.596 106.97V107.75C168.356 107.31 167.806 106.87 166.926 106.87C165.716 106.87 164.606 107.66 164.606 109.37C164.606 111 165.626 111.83 166.836 111.83C167.506 111.83 168.246 111.54 168.596 110.84V111.87C168.596 112.9 167.976 113.34 167.086 113.34C166.186 113.34 165.696 112.88 165.576 112.28H164.756C164.886 113.39 165.846 114.03 167.066 114.03C168.366 114.03 169.396 113.29 169.396 111.79V106.97H168.596ZM167.006 111.1C166.206 111.1 165.446 110.53 165.446 109.37C165.446 108.16 166.246 107.61 167.036 107.61C167.816 107.61 168.566 108.18 168.566 109.38C168.566 110.62 167.736 111.1 167.006 111.1ZM175.27 109.23C175.27 107.55 174.28 106.87 173.05 106.87C171.61 106.87 170.67 107.95 170.67 109.53C170.67 111.28 171.74 112.11 173.03 112.11C174 112.11 174.94 111.64 175.18 110.53H174.38C174.18 111.12 173.64 111.38 173.06 111.38C172.19 111.38 171.55 110.86 171.49 109.72H175.27V109.23ZM171.51 109.05C171.64 108.2 172.16 107.6 173.07 107.6C174.06 107.6 174.45 108.2 174.46 109.05H171.51ZM178.377 111.27C177.887 111.27 177.737 111.07 177.737 110.63V107.69H178.917V106.97H177.737V105.36L176.927 105.59V106.97H175.957V107.69H176.927V110.72C176.927 111.77 177.507 112 178.217 112H179.027V111.27H178.377Z" fill="white"/>
</g>
</g>
<defs>
<filter id="filter0_d" x="-60" y="-30" width="440" height="291.626" filterUnits="userSpaceOnUse" color-interpolation-filters="sRGB">
<feFlood flood-opacity="0" result="BackgroundImageFix"/>
<feColorMatrix in="SourceAlpha" type="matrix" values="0 0 0 0 0 0 0 0 0 0 0 0 0 0 0 0 0 0 127 0"/>
<feOffset dy="30"/>
<feGaussianBlur stdDeviation="30"/>
<feColorMatrix type="matrix" values="0 0 0 0 0 0 0 0 0 0 0 0 0 0 0 0 0 0 0.0790811 0"/>
<feBlend mode="normal" in2="BackgroundImageFix" result="effect1_dropShadow"/>
<feBlend mode="normal" in="SourceGraphic" in2="effect1_dropShadow" result="shape"/>
</filter>
<clipPath id="clip0">
<rect width="320" height="171.626" fill="white"/>
</clipPath>
<clipPath id="clip1">
<rect width="229" height="162" fill="white" transform="translate(-9 21)"/>
</clipPath>
</defs>
</svg>
