<svg width="50" height="50" viewBox="0 0 50 50" fill="none" xmlns="http://www.w3.org/2000/svg">
<rect width="50" height="50" rx="20" fill="#EFF1F5"/>
<path d="M38.2 23.4286L31.8 22.6429L29.4 21.8571H28.2L22.3579 14.5893H24.3334C24.9166 14.5893 25.4 14.4604 25.4 14.2946C25.4 14.1289 24.9166 14 24.3334 14H18.6V14.5893H19.4V22.6429H17L13.6667 18.7143H11.9334L11.4 19.2381V22.6429H11.8V23.4286H14.2V23.5595L11 23.9523V26.0476L14.2 26.4405V26.5714H11.8V27.3571H11.4V30.7619L11.9334 31.2857H13.6667L17 27.3571H19.4V35.4107H18.6V36H24.3334C24.9167 36 25.4 35.8711 25.4 35.7054C25.4 35.5396 24.9166 35.4107 24.3334 35.4107H22.3579L28.2 28.1429H29.4L31.8 27.3571L38.2 26.5714C43 25.5238 43 25.266 43 25C43 24.734 43 24.4762 38.2 23.4286Z" fill="#FFBD14"/>
</svg>
