<svg width="376" height="813" viewBox="0 0 376 813" fill="none" xmlns="http://www.w3.org/2000/svg">
<path d="M315.29 924.959C292.67 914.258 275.178 895.113 266.662 871.736C258.146 848.359 259.304 822.665 269.882 800.306L309.764 716L366.624 742.898L326.742 827.204C323.216 834.657 322.83 843.222 325.669 851.014C328.507 858.807 334.338 865.188 341.878 868.755C349.418 872.322 358.05 872.782 365.875 870.034C373.7 867.286 380.077 861.556 383.602 854.102L423.484 769.797L480.344 796.695L440.463 881.001C429.885 903.36 410.755 920.553 387.281 928.796C363.807 937.04 337.911 935.66 315.29 924.959Z" fill="#111624"/>
<g opacity="0.5">
<path opacity="0.5" d="M315.29 924.959C292.67 914.258 275.178 895.113 266.662 871.736C258.146 848.359 259.304 822.665 269.882 800.306L309.764 716L366.624 742.898L326.742 827.204C323.216 834.657 322.83 843.222 325.669 851.014C328.507 858.807 334.338 865.188 341.878 868.755C349.418 872.322 358.05 872.782 365.875 870.034C373.7 867.286 380.077 861.556 383.602 854.102L423.484 769.797L480.344 796.695L440.463 881.001C429.885 903.36 410.755 920.553 387.281 928.796C363.807 937.04 337.911 935.66 315.29 924.959Z" fill="#111624"/>
</g>
<g opacity="0.2">
<path d="M308.206 911.3C269.96 893.208 240.385 860.838 225.987 821.313C211.589 781.788 213.547 738.345 231.431 700.541L298.861 558L394.998 603.479L327.568 746.02C321.607 758.621 320.954 773.102 325.753 786.277C330.553 799.452 340.411 810.242 353.16 816.273C365.908 822.304 380.503 823.082 393.733 818.436C406.962 813.79 417.744 804.1 423.705 791.499L491.136 648.958L587.273 694.436L519.842 836.977C501.959 874.782 469.614 903.85 429.925 917.788C390.235 931.727 346.452 929.393 308.206 911.3Z" fill="#5548BD"/>
<g opacity="0.5">
<path opacity="0.5" d="M308.206 911.3C269.96 893.208 240.385 860.838 225.987 821.313C211.589 781.788 213.547 738.345 231.431 700.541L298.861 558L394.998 603.479L327.568 746.02C321.607 758.621 320.954 773.102 325.753 786.277C330.553 799.452 340.411 810.242 353.16 816.273C365.908 822.304 380.503 823.082 393.733 818.436C406.962 813.79 417.744 804.1 423.705 791.499L491.136 648.958L587.273 694.436L519.842 836.977C501.959 874.782 469.614 903.85 429.925 917.788C390.235 931.727 346.452 929.393 308.206 911.3Z" fill="#5548BD"/>
</g>
</g>
<g opacity="0.2">
<path d="M332.206 589.3C293.96 571.208 264.385 538.838 249.987 499.313C235.589 459.788 237.547 416.345 255.431 378.541L322.861 236L418.998 281.479L351.568 424.02C345.607 436.621 344.954 451.102 349.753 464.277C354.553 477.452 364.411 488.242 377.16 494.273C389.908 500.304 404.503 501.082 417.733 496.436C430.962 491.79 441.744 482.1 447.705 469.499L515.136 326.958L611.273 372.436L543.842 514.977C525.959 552.782 493.614 581.85 453.925 595.788C414.235 609.727 370.452 607.393 332.206 589.3Z" fill="#FFBD14"/>
<g opacity="0.5">
<path opacity="0.5" d="M332.206 589.3C293.96 571.208 264.385 538.838 249.987 499.313C235.589 459.788 237.547 416.345 255.431 378.541L322.861 236L418.998 281.479L351.568 424.02C345.607 436.621 344.954 451.102 349.753 464.277C354.553 477.452 364.411 488.242 377.16 494.273C389.908 500.304 404.503 501.082 417.733 496.436C430.962 491.79 441.744 482.1 447.705 469.499L515.136 326.958L611.273 372.436L543.842 514.977C525.959 552.782 493.614 581.85 453.925 595.788C414.235 609.727 370.452 607.393 332.206 589.3Z" fill="#FFBD14"/>
</g>
</g>
<g opacity="0.2">
<path d="M-69.7013 232.027C-110.624 212.669 -142.269 178.034 -157.675 135.743C-173.081 93.4512 -170.985 46.9675 -151.85 6.51738L-79.7 -146L23.1658 -97.3382L-48.9842 55.1792C-55.3626 68.6625 -56.061 84.1571 -50.9258 98.2542C-45.7905 112.351 -35.2421 123.896 -21.6013 130.349C-7.96044 136.802 7.65555 137.635 21.8113 132.663C35.9671 127.692 47.5031 117.324 53.8816 103.841L126.032 -48.6764L228.897 -0.0146701L156.747 152.503C137.612 192.953 103.004 224.056 60.5366 238.97C18.0692 253.884 -28.7787 251.386 -69.7013 232.027Z" fill="#1EF2FF"/>
<g opacity="0.5">
<path opacity="0.5" d="M-69.7013 232.027C-110.624 212.669 -142.269 178.034 -157.675 135.743C-173.081 93.4512 -170.985 46.9675 -151.85 6.51738L-79.7 -146L23.1658 -97.3382L-48.9842 55.1792C-55.3626 68.6625 -56.061 84.1571 -50.9258 98.2542C-45.7905 112.351 -35.2421 123.896 -21.6013 130.349C-7.96044 136.802 7.65555 137.635 21.8113 132.663C35.9671 127.692 47.5031 117.324 53.8816 103.841L126.032 -48.6764L228.897 -0.0146701L156.747 152.503C137.612 192.953 103.004 224.056 60.5366 238.97C18.0692 253.884 -28.7787 251.386 -69.7013 232.027Z" fill="#1EF2FF"/>
</g>
</g>
<g opacity="0.2">
<path d="M-99.9756 363.856C-132.869 348.296 -158.305 320.457 -170.688 286.463C-183.071 252.47 -181.387 215.106 -166.006 182.593L-108.012 60L-25.3295 99.1141L-83.3233 221.707C-88.4503 232.545 -89.0116 244.999 -84.8839 256.33C-80.7562 267.661 -72.2775 276.941 -61.3131 282.128C-50.3487 287.315 -37.7966 287.984 -26.4183 283.988C-15.0399 279.992 -5.76734 271.659 -0.640365 260.821L57.3534 138.228L140.036 177.342L82.0426 299.935C66.6617 332.448 38.8439 357.449 4.70887 369.436C-29.4262 381.424 -67.0823 379.417 -99.9756 363.856Z" fill="#1EF2FF"/>
<g opacity="0.5">
<path opacity="0.5" d="M-99.9756 363.856C-132.869 348.296 -158.305 320.457 -170.688 286.463C-183.071 252.47 -181.387 215.106 -166.006 182.593L-108.012 60L-25.3295 99.1141L-83.3233 221.707C-88.4503 232.545 -89.0116 244.999 -84.8839 256.33C-80.7562 267.661 -72.2775 276.941 -61.3131 282.128C-50.3487 287.315 -37.7966 287.984 -26.4183 283.988C-15.0399 279.992 -5.76734 271.659 -0.640365 260.821L57.3534 138.228L140.036 177.342L82.0426 299.935C66.6617 332.448 38.8439 357.449 4.70887 369.436C-29.4262 381.424 -67.0823 379.417 -99.9756 363.856Z" fill="#1EF2FF"/>
</g>
</g>
<g opacity="0.2">
<path opacity="0.5" d="M251.159 159.838C229.634 149.655 212.99 131.438 204.886 109.193C196.783 86.9484 197.885 62.4985 207.95 41.2223L245.9 -39L300.006 -13.4045L262.056 66.8178C258.701 73.9099 258.334 82.0598 261.035 89.4747C263.736 96.8896 269.284 102.962 276.459 106.356C283.634 109.75 291.848 110.188 299.294 107.573C306.739 104.959 312.807 99.5053 316.162 92.4133L354.112 12.191L408.218 37.7865L370.268 118.009C360.203 139.285 342 155.645 319.663 163.489C297.325 171.334 272.684 170.02 251.159 159.838Z" fill="#FF1577"/>
</g>
<g opacity="0.5">
<path opacity="0.5" d="M-35.8408 604.838C-57.3656 594.655 -74.0104 576.438 -82.1137 554.193C-90.217 531.948 -89.115 507.499 -79.05 486.222L-41.1 406L13.0062 431.595L-24.9439 511.818C-28.2988 518.91 -28.6662 527.06 -25.9651 534.475C-23.264 541.89 -17.7157 547.962 -10.5408 551.356C-3.36587 554.75 4.84795 555.188 12.2937 552.573C19.7395 549.959 25.8073 544.505 29.1623 537.413L67.1123 457.191L121.218 482.786L83.2684 563.009C73.2035 584.285 55 600.645 32.6627 608.489C10.3254 616.334 -14.316 615.02 -35.8408 604.838Z" fill="#FFBD14"/>
</g>
<g opacity="0.2">
<path d="M338.159 159.838C316.634 149.655 299.99 131.438 291.886 109.193C283.783 86.9484 284.885 62.4985 294.95 41.2223L332.9 -39L387.006 -13.4045L349.056 66.8178C345.701 73.9099 345.334 82.0598 348.035 89.4747C350.736 96.8896 356.284 102.962 363.459 106.356C370.634 109.75 378.848 110.188 386.294 107.573C393.739 104.959 399.807 99.5053 403.162 92.4133L441.112 12.191L495.218 37.7865L457.268 118.009C447.203 139.285 429 155.645 406.663 163.489C384.325 171.334 359.684 170.02 338.159 159.838Z" fill="#FF1577"/>
</g>
</svg>
