<svg width="26" height="24" viewBox="0 0 26 24" fill="none" xmlns="http://www.w3.org/2000/svg">
<path d="M21.3959 6.72265L12.3533 0.739502L3.31076 6.72265V22.1443H21.4V6.72265H21.3959Z" fill="#E1EFFB"/>
<path d="M21.396 6.72264L12.5052 0.739502L10.6805 1.9675L19.1723 7.68213H19.1763V22.1443H21.4V6.72264H21.396Z" fill="#CCDFED"/>
<path d="M2.00465 9.28654L12.5382 2.24955C12.6304 2.18794 12.7504 2.18794 12.8426 2.24955L23.3761 9.28649C23.6727 9.48465 24.0588 9.48465 24.3554 9.28649C24.8814 8.93515 24.8814 8.15932 24.3554 7.80798L12.8426 0.11676C12.7504 0.0551555 12.6304 0.0551555 12.5382 0.11676L1.02531 7.80798C0.499375 8.15932 0.499375 8.93515 1.02531 9.28649C1.32195 9.4847 1.70801 9.4847 2.00465 9.28654Z" fill="#FF4C4C"/>
<ellipse cx="12.6904" cy="6.75951" rx="2.00992" ry="2.0067" fill="#FFB125"/>
<path d="M14.7003 6.75951C14.7003 6.62946 14.6875 6.50242 14.6638 6.37925H13.0696V4.78896C12.9468 4.76551 12.8201 4.75281 12.6904 4.75281C12.5607 4.75281 12.434 4.76556 12.3111 4.78896V6.37925H10.717C10.6933 6.50242 10.6805 6.62941 10.6805 6.75951C10.6805 6.88845 10.6931 7.01439 10.7164 7.13656H12.3112V8.73006C12.434 8.7535 12.5607 8.76621 12.6904 8.76621C12.8201 8.76621 12.9468 8.75345 13.0697 8.73006V7.13656H14.6644C14.6876 7.01439 14.7003 6.88845 14.7003 6.75951Z" fill="#FF901D"/>
<rect x="9.34048" y="14.1174" width="6.02976" height="9.3646" fill="#FFB125"/>
<rect x="12.6904" y="14.1174" width="3.34986" height="9.3646" fill="#FF901D"/>
<path d="M23.3476 22.1443H2.03317C1.62871 22.1443 1.30084 22.4438 1.30084 22.8132C1.30084 23.1826 1.62871 23.4821 2.03317 23.4821H23.3476C23.752 23.4821 24.0799 23.1826 24.0799 22.8132C24.0799 22.4438 23.752 22.1443 23.3476 22.1443Z" fill="#2D5871"/>
<path d="M24.6988 8.85537C24.7045 8.83934 24.7103 8.82335 24.7151 8.80708C24.7178 8.79796 24.7197 8.7887 24.722 8.77953C24.7262 8.76316 24.7306 8.74689 24.7338 8.73038C24.7356 8.72122 24.7367 8.7119 24.738 8.70269C24.7412 8.68138 24.7446 8.66007 24.7461 8.63856C24.7476 8.6173 24.7496 8.59604 24.7499 8.57473C24.75 8.56575 24.7493 8.55687 24.7491 8.5479C24.7488 8.53004 24.7484 8.51219 24.747 8.49433C24.7464 8.48564 24.7449 8.477 24.744 8.46831C24.742 8.45022 24.7399 8.43222 24.7369 8.41427C24.7354 8.40597 24.7334 8.39781 24.7317 8.3895C24.728 8.37131 24.7241 8.35317 24.7192 8.33517C24.717 8.3273 24.7145 8.31952 24.7121 8.31165C24.7066 8.29351 24.7007 8.27551 24.694 8.2577C24.6912 8.25021 24.6881 8.24287 24.685 8.23543C24.6777 8.21753 24.6699 8.19986 24.6613 8.18239C24.6579 8.17534 24.6542 8.16838 24.6505 8.16142C24.6414 8.14399 24.6316 8.12686 24.6212 8.10996C24.6191 8.1066 24.6175 8.10305 24.6154 8.09974C24.6153 8.09993 24.6151 8.10008 24.615 8.10027C24.5511 7.99981 24.4653 7.90952 24.3557 7.83772L23.2054 7.08334L23.0766 7.27835C22.8515 7.61914 22.3876 7.71341 22.0441 7.48815L12.8427 1.45368C12.7505 1.39321 12.6305 1.39321 12.5383 1.45368L2.00445 8.3619C1.70781 8.55644 1.32173 8.55644 1.02508 8.3619C0.915688 8.29015 0.829368 8.2002 0.765444 8.09984C0.522063 8.48204 0.608675 9.01702 1.02611 9.28994C1.32718 9.48683 1.72231 9.47425 2.02309 9.27698L12.5383 2.38105C12.6305 2.32057 12.7505 2.32057 12.8427 2.38105L23.3765 9.28922C23.6732 9.48376 24.0592 9.48376 24.3559 9.28922C24.3787 9.27429 24.4001 9.25831 24.4208 9.24185C24.4281 9.23614 24.4351 9.23023 24.4421 9.22438C24.4553 9.21319 24.468 9.20172 24.4803 9.19001C24.4878 9.18295 24.4955 9.17604 24.5026 9.16879C24.5175 9.15363 24.5318 9.13808 24.5453 9.12214L24.5461 9.12099C24.5908 9.06829 24.6279 9.01146 24.6579 8.9518L24.6598 8.94892C24.6631 8.94239 24.6655 8.93557 24.6686 8.92895C24.6758 8.91349 24.683 8.89809 24.6892 8.8823C24.6927 8.87337 24.6956 8.86434 24.6988 8.85537Z" fill="#F33939"/>
<path d="M24.0751 22.739C24.0745 22.7341 24.0735 22.7293 24.0727 22.7244C24.0697 22.7043 24.066 22.6844 24.0612 22.6649C24.0603 22.6614 24.0592 22.6581 24.0583 22.6546C24.0526 22.6332 24.0458 22.6123 24.0379 22.5918C24.0374 22.5905 24.0369 22.5892 24.0363 22.5879C24.0275 22.5653 24.0174 22.5435 24.0061 22.5222V22.5221C23.8876 22.2987 23.6376 22.1443 23.3476 22.1443H21.8537V22.4428C21.8537 22.6953 21.6297 22.8999 21.3533 22.8999H2.03316C1.74309 22.8999 1.49317 22.7455 1.37459 22.5221C1.31557 22.6333 1.28808 22.7611 1.30652 22.8965C1.35264 23.2346 1.67983 23.4821 2.05281 23.4821H23.3476C23.752 23.4821 24.0799 23.1826 24.0799 22.8132C24.0799 22.7881 24.0781 22.7634 24.0751 22.739Z" fill="#1D4859"/>
<path d="M17.3802 23.482H15.3703V9.74935C15.3703 9.20639 15.8202 8.76624 16.3752 8.76624C16.9303 8.76624 17.3802 9.20639 17.3802 9.74935V23.482Z" fill="#FF6D3A"/>
<path d="M16.4869 8.76624C16.324 8.76624 16.1717 8.81501 16.0402 8.89882C16.307 9.06887 16.4869 9.38567 16.4869 9.74935V23.482H17.3802V9.74935C17.3802 9.20644 16.9802 8.76624 16.4869 8.76624Z" fill="#ED5729"/>
<path d="M24.8003 18.7997H7.9502C7.60798 18.7997 7.3306 18.5097 7.3306 18.1518V11.4209C7.3306 11.063 7.60798 10.7729 7.9502 10.7729H24.8003C25.1425 10.7729 25.4199 11.063 25.4199 11.4209V18.1518C25.4199 18.5096 25.1425 18.7997 24.8003 18.7997Z" fill="#61AFF6"/>
<path d="M24.8003 10.7729H23.1776V17.1659C23.1776 17.5238 22.9002 17.8139 22.558 17.8139H7.3306V18.1518C7.3306 18.5097 7.60803 18.7997 7.9502 18.7997H24.8003C25.1425 18.7997 25.4199 18.5096 25.4199 18.1518V11.421C25.4199 11.0631 25.1425 10.7729 24.8003 10.7729Z" fill="#55A2F0"/>
<path fill-rule="evenodd" clip-rule="evenodd" d="M13.1308 13.9436C13.1308 14.5586 12.8451 14.8902 12.4626 15.0132L13.1308 16.3127C13.1512 16.3395 13.1563 16.377 13.1563 16.3983C13.1563 16.5748 12.937 16.762 12.7432 16.762C12.6514 16.762 12.5647 16.7032 12.5137 16.5962L11.7894 15.1201H11.361V16.516C11.361 16.6603 11.1977 16.7352 11.0294 16.7352C10.8663 16.7352 10.6979 16.6604 10.6979 16.516V13.0398C10.6979 12.9276 10.7846 12.8259 10.9121 12.8259H11.922C12.5901 12.8259 13.1308 13.0933 13.1308 13.9436ZM11.3609 14.5747H11.9219C12.2535 14.5747 12.4677 14.4304 12.4677 14.0078C12.4677 13.5854 12.2535 13.4356 11.9219 13.4356H11.3609V14.5747Z" fill="white"/>
<path d="M15.8133 13.4356C15.9459 13.4356 16.0224 13.2911 16.0224 13.1254C16.0224 12.981 15.9561 12.8259 15.8133 12.8259H13.9975C13.8496 12.8259 13.7068 12.9008 13.7068 13.0452V16.516C13.7068 16.6604 13.8497 16.7352 13.9975 16.7352H15.8133C15.9561 16.7352 16.0224 16.5801 16.0224 16.4357C16.0224 16.2699 15.9458 16.1256 15.8133 16.1256H14.3698V15.0506H15.1451C15.288 15.0506 15.3542 14.9062 15.3542 14.7832C15.3542 14.6389 15.2777 14.5051 15.1451 14.5051H14.3698V13.4356H15.8133Z" fill="white"/>
<path d="M18.654 12.8259C18.4857 12.8259 18.3225 12.8901 18.3225 13.0398V15.1897L17.3381 13.195C17.18 12.8794 17.0831 12.8259 16.8434 12.8259C16.6751 12.8259 16.5119 12.8955 16.5119 13.0452V16.516C16.5119 16.6604 16.6751 16.7352 16.8434 16.7352C17.0066 16.7352 17.1749 16.6603 17.1749 16.516V14.3661L18.2715 16.516C18.3582 16.6817 18.4959 16.7352 18.654 16.7352C18.8173 16.7352 18.9855 16.6603 18.9855 16.516V13.0398C18.9855 12.89 18.8172 12.8259 18.654 12.8259Z" fill="white"/>
<path d="M21.8211 12.8259H19.6636C19.5208 12.8259 19.4545 12.9864 19.4545 13.1361C19.4545 13.3072 19.531 13.4516 19.6636 13.4516H20.4133V16.516C20.4133 16.6604 20.5766 16.7352 20.7449 16.7352C20.9081 16.7352 21.0764 16.6603 21.0764 16.516V13.4516H21.8211C21.9537 13.4516 22.0301 13.3019 22.0301 13.1361C22.0302 12.9864 21.9639 12.8259 21.8211 12.8259Z" fill="white"/>
</svg>
