<svg width="74" height="73" viewBox="0 0 74 73" fill="none" xmlns="http://www.w3.org/2000/svg">
<path d="M66.7506 50.9414C67.8922 51.5028 69.2804 51.0348 69.7657 49.8589C71.7479 45.0565 72.6441 39.8648 72.3777 34.6572C72.0719 28.6812 70.2451 22.8824 67.0705 17.8102C63.8958 12.738 59.4785 8.56055 54.2372 5.67376C48.9958 2.78696 43.1041 1.28646 37.1204 1.31447C31.1367 1.34248 25.2593 2.89808 20.0452 5.83383C14.8311 8.76957 10.4531 12.9882 7.32606 18.0899C4.19905 23.1916 2.42665 29.0073 2.17684 34.9858C1.95915 40.1957 2.90399 45.3788 4.93101 50.1624C5.42737 51.3338 6.81981 51.7887 7.95616 51.2167C9.09251 50.6446 9.54123 49.2625 9.05648 48.0862C7.37557 44.0076 6.59496 39.604 6.77988 35.1782C6.99694 29.9835 8.53696 24.9303 11.254 20.4975C13.971 16.0647 17.775 12.3991 22.3055 9.8483C26.836 7.29746 31.9428 5.94582 37.142 5.92148C42.3411 5.89714 47.4604 7.20091 52.0145 9.70922C56.5687 12.2175 60.4069 15.8473 63.1653 20.2544C65.9237 24.6616 67.511 29.7002 67.7766 34.8926C68.003 39.3165 67.2636 43.7272 65.621 47.8214C65.1473 49.0021 65.6089 50.3801 66.7506 50.9414Z" fill="#E6EAEE"/>
<path d="M50.7431 6.50243C51.2645 5.34199 50.7486 3.9709 49.5565 3.52659C43.5224 1.27762 36.9706 0.725006 30.619 1.95221C23.5117 3.32544 17.0019 6.8602 11.9795 12.0733C6.95718 17.2864 3.66741 23.9233 2.55994 31.0769C1.57023 37.4698 2.36656 43.9965 4.83878 49.9426C5.3272 51.1173 6.71656 51.5818 7.85676 51.0175V51.0175C8.99696 50.4532 9.45505 49.0741 8.97828 47.8946C6.92034 42.8034 6.26829 37.2365 7.11276 31.7818C8.07503 25.5661 10.9335 19.7993 15.2973 15.2697C19.6612 10.7401 25.3175 7.6688 31.493 6.47561C36.9125 5.4285 42.4998 5.87268 47.6641 7.73952C48.8606 8.17201 50.2216 7.66286 50.7431 6.50243V6.50243Z" fill="url(#paint0_linear)"/>
<defs>
<linearGradient id="paint0_linear" x1="49.5622" y1="5.54772" x2="7.64981" y2="50.847" gradientUnits="userSpaceOnUse">
<stop stop-color="#78FFBF"/>
<stop offset="1" stop-color="#016938"/>
</linearGradient>
</defs>
</svg>
