<svg width="88" height="67" viewBox="0 0 88 67" fill="none" xmlns="http://www.w3.org/2000/svg">
<path d="M33 66.1654C24.2479 66.1654 15.8542 62.6799 9.66548 56.4757C3.47678 50.2715 0 41.8568 0 33.0827L0 0H22V33.0827C22 36.0074 23.1589 38.8123 25.2218 40.8804C27.2847 42.9484 30.0826 44.1103 33 44.1103C35.9174 44.1103 38.7153 42.9484 40.7782 40.8804C42.8411 38.8123 44 36.0074 44 33.0827V0H66V33.0827C66 41.8568 62.5232 50.2715 56.3345 56.4757C50.1458 62.6799 41.7521 66.1654 33 66.1654Z" fill="#4DE897"/>
<path d="M88 44.1105H33V66.1656H88V44.1105Z" fill="#016938"/>
<g opacity="0.5">
<path opacity="0.5" d="M33 66.1654C24.2479 66.1654 15.8542 62.6799 9.66548 56.4757C3.47678 50.2715 0 41.8568 0 33.0827L0 0H22V33.0827C22 36.0074 23.1589 38.8123 25.2218 40.8804C27.2847 42.9484 30.0826 44.1103 33 44.1103C35.9174 44.1103 38.7153 42.9484 40.7782 40.8804C42.8411 38.8123 44 36.0074 44 33.0827V0H66V33.0827C66 41.8568 62.5232 50.2715 56.3345 56.4757C50.1458 62.6799 41.7521 66.1654 33 66.1654Z" fill="#4DE897"/>
</g>
</svg>
