<svg width="71" height="51" viewBox="0 0 71 51" fill="none" xmlns="http://www.w3.org/2000/svg">
<path d="M64.8017 49.8249C65.9434 50.3862 67.3315 49.9183 67.8169 48.7423C69.799 43.9399 70.6953 38.7482 70.4288 33.5406C70.1231 27.5647 68.2963 21.7658 65.1216 16.6936C61.947 11.6214 57.5297 7.44398 52.2883 4.55718C47.047 1.67038 41.1552 0.169881 35.1715 0.197893C29.1879 0.225906 23.3104 1.7815 18.0963 4.71725C12.8822 7.65299 8.50422 11.8716 5.37721 16.9733C2.2502 22.075 0.477797 27.8907 0.227988 33.8692C0.010298 39.0791 0.955137 44.2622 2.98215 49.0458C3.47851 50.2172 4.87096 50.6721 6.00731 50.1001C7.14366 49.5281 7.59238 48.1459 7.10763 46.9697C5.42672 42.891 4.64611 38.4874 4.83103 34.0616C5.04809 28.8669 6.58811 23.8137 9.30513 19.3809C12.0222 14.9481 15.8262 11.2826 20.3566 8.73172C24.8871 6.18088 29.9939 4.82924 35.1931 4.8049C40.3923 4.78056 45.5115 6.08433 50.0657 8.59264C54.6198 11.1009 58.458 14.7307 61.2164 19.1379C63.9748 23.545 65.5621 28.5836 65.8278 33.776C66.0541 38.1999 65.3148 42.6106 63.6721 46.7048C63.1984 47.8856 63.6601 49.2635 64.8017 49.8249Z" fill="#E6EAEE"/>
</svg>
