<svg width="17" height="17" viewBox="0 0 17 17" fill="none" xmlns="http://www.w3.org/2000/svg">
<path fill-rule="evenodd" clip-rule="evenodd" d="M1.0081 16.6305C0.802051 16.8365 0.467973 16.8365 0.261921 16.6305C0.0558677 16.4244 0.0558677 16.0903 0.261921 15.8843L15.9917 0.15454C16.1977 -0.0515132 16.5318 -0.0515132 16.7378 0.15454C16.9439 0.360592 16.9439 0.69467 16.7378 0.900723L1.0081 16.6305ZM6.18796 9.33238C6.29788 9.60226 6.16821 9.91015 5.89834 10.0201C5.62846 10.13 5.32058 10.0003 5.21065 9.73044C4.02852 6.82809 6.93025 3.91872 9.83799 5.10312C10.1079 5.21304 10.2375 5.52093 10.1276 5.7908C10.0177 6.06068 9.70979 6.19034 9.43992 6.08042C7.39811 5.24874 5.35787 7.29436 6.18796 9.33238ZM3.79016 12.1805C3.96781 11.9495 3.92457 11.6182 3.69358 11.4406C2.66075 10.6462 1.7833 9.60599 1.12384 8.39245C3.28388 4.40909 7.51131 2.69919 11.3185 4.20833C11.5894 4.31571 11.896 4.18316 12.0034 3.91226C12.1108 3.64137 11.9782 3.33471 11.7073 3.22733C7.30277 1.48138 2.416 3.52779 0.0575814 8.15296C-0.019226 8.30359 -0.019192 8.48191 0.0576729 8.63251C0.799777 10.0865 1.82415 11.3341 3.05025 12.2771C3.28124 12.4547 3.61251 12.4115 3.79016 12.1805ZM13.3064 5.34442C13.0754 5.16677 13.0322 4.8355 13.2098 4.60451C13.3875 4.37352 13.7187 4.33028 13.9497 4.50794C15.1766 5.45147 16.2014 6.69941 16.9424 8.15269C17.0192 8.30325 17.0192 8.48148 16.9424 8.63205C14.584 13.2572 9.69722 15.3036 5.29264 13.5577C5.02174 13.4503 4.88919 13.1436 4.99657 12.8727C5.10395 12.6018 5.41061 12.4693 5.6815 12.5767C9.48871 14.0858 13.7162 12.3759 15.8762 8.39245C15.2177 7.17971 14.3399 6.13925 13.3064 5.34442ZM6.87253 10.9943C6.76264 11.2642 6.89235 11.5721 7.16224 11.682C10.0714 12.8664 12.9707 9.95628 11.7895 7.05473C11.6797 6.78483 11.3718 6.6551 11.1019 6.76497C10.832 6.87484 10.7023 7.1827 10.8122 7.4526C11.6417 9.49028 9.60314 11.5364 7.56017 10.7046C7.29028 10.5947 6.98241 10.7245 6.87253 10.9943Z" fill="black"/>
<mask id="mask0" mask-type="alpha" maskUnits="userSpaceOnUse" x="0" y="0" width="17" height="17">
<path fill-rule="evenodd" clip-rule="evenodd" d="M1.0081 16.6305C0.802051 16.8365 0.467973 16.8365 0.261921 16.6305C0.0558677 16.4244 0.0558677 16.0903 0.261921 15.8843L15.9917 0.15454C16.1977 -0.0515132 16.5318 -0.0515132 16.7378 0.15454C16.9439 0.360592 16.9439 0.69467 16.7378 0.900723L1.0081 16.6305ZM6.18796 9.33238C6.29788 9.60226 6.16821 9.91015 5.89834 10.0201C5.62846 10.13 5.32058 10.0003 5.21065 9.73044C4.02852 6.82809 6.93025 3.91872 9.83799 5.10312C10.1079 5.21304 10.2375 5.52093 10.1276 5.7908C10.0177 6.06068 9.70979 6.19034 9.43992 6.08042C7.39811 5.24874 5.35787 7.29436 6.18796 9.33238ZM3.79016 12.1805C3.96781 11.9495 3.92457 11.6182 3.69358 11.4406C2.66075 10.6462 1.7833 9.60599 1.12384 8.39245C3.28388 4.40909 7.51131 2.69919 11.3185 4.20833C11.5894 4.31571 11.896 4.18316 12.0034 3.91226C12.1108 3.64137 11.9782 3.33471 11.7073 3.22733C7.30277 1.48138 2.416 3.52779 0.0575814 8.15296C-0.019226 8.30359 -0.019192 8.48191 0.0576729 8.63251C0.799777 10.0865 1.82415 11.3341 3.05025 12.2771C3.28124 12.4547 3.61251 12.4115 3.79016 12.1805ZM13.3064 5.34442C13.0754 5.16677 13.0322 4.8355 13.2098 4.60451C13.3875 4.37352 13.7187 4.33028 13.9497 4.50794C15.1766 5.45147 16.2014 6.69941 16.9424 8.15269C17.0192 8.30325 17.0192 8.48148 16.9424 8.63205C14.584 13.2572 9.69722 15.3036 5.29264 13.5577C5.02174 13.4503 4.88919 13.1436 4.99657 12.8727C5.10395 12.6018 5.41061 12.4693 5.6815 12.5767C9.48871 14.0858 13.7162 12.3759 15.8762 8.39245C15.2177 7.17971 14.3399 6.13925 13.3064 5.34442ZM6.87253 10.9943C6.76264 11.2642 6.89235 11.5721 7.16224 11.682C10.0714 12.8664 12.9707 9.95628 11.7895 7.05473C11.6797 6.78483 11.3718 6.6551 11.1019 6.76497C10.832 6.87484 10.7023 7.1827 10.8122 7.4526C11.6417 9.49028 9.60314 11.5364 7.56017 10.7046C7.29028 10.5947 6.98241 10.7245 6.87253 10.9943Z" fill="white"/>
</mask>
<g mask="url(#mask0)">
<rect x="-23.375" y="-25.5" width="69.0625" height="69.0625" fill="#D1D1D1"/>
</g>
</svg>
